# Blender v2.79 (sub 0) OBJ File: 'Biurko.blend'
# www.blender.org
mtllib Biurko.mtl
o Biurko_Cube
v 0.942703 0.054775 4.680492
v 0.942703 0.054775 5.668560
v -1.057297 0.000000 5.758245
v -1.057297 0.000000 4.590807
v 0.942703 1.221507 4.680492
v 0.942702 1.221517 5.668561
v -1.057298 1.221512 5.758244
v -1.057297 1.221512 4.590807
v 0.942703 0.061494 -5.141200
v 0.942703 0.061494 -4.059328
v -1.057297 0.000000 -3.958643
v -1.057297 0.000000 -5.241885
v 0.942703 1.221506 -5.141199
v 0.942702 1.221518 -4.059327
v -1.057298 1.221512 -3.958643
v -1.057297 1.221512 -5.241885
v 0.942703 0.000000 -0.091314
v 0.942703 0.000000 0.091315
v -1.057297 0.000000 0.091315
v -1.057297 0.000000 -0.091315
v 0.942703 1.251665 -0.136372
v 0.942702 1.252124 0.137135
v -1.057298 1.224179 0.091315
v -1.057297 1.224179 -0.091314
v 0.942703 1.353556 4.680535
v 0.942702 1.353556 5.668603
v -1.057297 1.408332 4.590867
v -1.057298 1.408332 5.758304
v 0.942703 1.346838 -5.141159
v 0.942702 1.346838 -4.059286
v -1.057297 1.408332 -5.241825
v -1.057298 1.408332 -3.958583
v 0.942703 1.383435 -0.136330
v 0.942702 1.382986 0.137177
v -1.057297 1.410998 -0.091255
v -1.057298 1.410998 0.091374
v 0.942703 1.494729 4.590862
v 0.942702 1.494729 5.758299
v -1.057297 1.494729 4.590862
v -1.057298 1.494729 5.758298
v 0.942703 1.494729 -5.241830
v 0.942702 1.494729 -3.958588
v -1.057297 1.494729 -5.241831
v -1.057298 1.494729 -3.958589
v 0.942703 1.497396 -0.091260
v 0.942702 1.497396 0.091369
v -1.057297 1.497396 -0.091260
v -1.057298 1.497396 0.091369
v 0.942703 0.000000 4.590807
v 0.942703 0.000000 5.758245
v 0.942703 1.249524 4.545007
v 0.942702 1.221512 5.758245
v 0.942703 1.380386 4.545049
v 0.942702 1.408332 5.758305
v 0.942703 0.000000 -5.241885
v 0.942703 0.000000 -3.958643
v 0.942703 1.221512 -5.241884
v 0.942702 1.249075 -3.913566
v 0.942703 1.408332 -5.241824
v 0.942702 1.380845 -3.913524
v 0.942703 1.221512 4.590808
v 0.942702 1.224179 0.091315
v 0.942703 1.408332 4.590868
v 0.942702 1.410998 0.091375
v 0.942702 1.221512 -3.958642
v 0.942703 1.224179 -0.091314
v 0.942702 1.408332 -3.958582
v 0.942703 1.410998 -0.091254
v 0.878544 1.221507 4.680492
v 0.878543 1.221517 5.668561
v 0.878543 0.054775 4.680492
v 0.878543 0.054775 5.668560
v 0.878544 1.353556 4.680535
v 0.878543 1.353556 5.668603
v 0.878544 1.210232 4.710252
v 0.878543 1.210242 5.638803
v 0.878543 0.081642 4.710251
v 0.878543 0.081642 5.638802
v 0.878544 1.337965 4.710292
v 0.878543 1.337965 5.638844
v 0.942703 1.210232 4.710252
v 0.942702 1.210242 5.638803
v 0.942703 0.081642 4.710251
v 0.942703 0.081642 5.638802
v 0.942703 1.337965 4.710292
v 0.942702 1.337965 5.638844
v 0.884077 1.221506 -5.141199
v 0.884076 1.221518 -4.059327
v 0.884077 0.061494 -5.141200
v 0.884077 0.061494 -4.059328
v 0.884077 1.346838 -5.141159
v 0.884076 1.346838 -4.059286
v 0.884077 1.207016 -5.103416
v 0.884076 1.207028 -4.097109
v 0.884077 0.095739 -5.103417
v 0.884077 0.095739 -4.097110
v 0.884077 1.327083 -5.103378
v 0.884076 1.327083 -4.097070
v 0.932981 1.207016 -5.103416
v 0.932980 1.207028 -4.097109
v 0.932981 0.095739 -5.103417
v 0.932981 0.095739 -4.097110
v 0.932981 1.327083 -5.103378
v 0.932980 1.327083 -4.097070
v 0.909847 1.249524 4.545007
v 0.909846 1.252124 0.137135
v 0.909847 1.380386 4.545049
v 0.909846 1.382986 0.137177
v 0.909847 1.249866 4.535853
v 0.909846 1.252453 0.146288
v 0.909847 1.380058 4.535895
v 0.909846 1.382644 0.146330
v 0.945849 1.249866 4.535853
v 0.945848 1.252453 0.146288
v 0.945849 1.380058 4.535895
v 0.945848 1.382644 0.146330
v 0.910072 1.249075 -3.913566
v 0.910073 1.251665 -0.136372
v 0.910072 1.380845 -3.913524
v 0.910073 1.383435 -0.136330
v 0.910072 1.250137 -3.889386
v 0.910073 1.252686 -0.160552
v 0.910072 1.379824 -3.889344
v 0.910073 1.382374 -0.160510
v 0.941183 1.250137 -3.889386
v 0.941184 1.252686 -0.160552
v 0.941183 1.379824 -3.889344
v 0.941184 1.382374 -0.160510
vt 0.007122 0.229969
vt 0.111402 0.479370
vt 0.111402 0.229969
vt 0.010386 0.626077
vt 0.193145 0.643148
vt 0.193145 0.626077
vt 0.193145 0.519461
vt 0.187282 0.626077
vt 0.193145 0.626077
vt 0.193145 0.626077
vt 0.010386 0.514456
vt 0.193145 0.514456
vt 0.012588 0.958935
vt 0.116813 0.849882
vt 0.012587 0.849882
vt 0.193145 0.514456
vt 0.010386 0.626077
vt 0.193145 0.626077
vt 0.875069 0.229969
vt 0.989693 0.479370
vt 0.989693 0.229969
vt 0.193145 0.628832
vt 0.190163 0.640873
vt 0.193145 0.640873
vt 0.193145 0.626076
vt 0.187788 0.520075
vt 0.193145 0.520075
vt 0.193145 0.626077
vt 0.010386 0.514456
vt 0.193145 0.514456
vt 0.880084 0.958935
vt 0.994648 0.849882
vt 0.880084 0.849882
vt 0.193145 0.514455
vt 0.513312 0.229969
vt 0.529626 0.479370
vt 0.529625 0.229969
vt 0.010386 0.643148
vt 0.010386 0.626077
vt 0.528608 0.807254
vt 0.512303 0.697963
vt 0.528608 0.697963
vt 0.193145 0.626320
vt 0.010386 0.514456
vt 0.193145 0.514456
vt 0.518515 0.849882
vt 0.534819 0.959173
vt 0.534819 0.849882
vt 0.193145 0.514456
vt 0.010386 0.626320
vt 0.193145 0.626320
vt 0.193145 0.637529
vt 0.187788 0.637529
vt 0.193145 0.637529
vt 0.116808 0.975614
vt 0.518515 0.959173
vt 0.116813 0.958935
vt 0.534814 0.975852
vt 0.880079 0.983327
vt 0.880078 0.975614
vt 0.528602 0.823933
vt 0.512298 0.831647
vt 0.512298 0.823933
vt 0.518510 0.983565
vt 0.534815 0.983565
vt 0.988430 0.823695
vt 0.873866 0.831409
vt 0.873866 0.823695
vt 0.528603 0.831647
vt 0.187282 0.638143
vt 0.193145 0.638143
vt 0.512303 0.807254
vt 0.193145 0.628637
vt 0.190143 0.640595
vt 0.193145 0.640595
vt 0.994642 0.975614
vt 0.994648 0.958935
vt 0.111402 0.479370
vt 0.513312 0.229969
vt 0.111402 0.229969
vt 0.875069 0.229969
vt 0.529626 0.479370
vt 0.875069 0.479371
vt 0.111397 0.479370
vt 0.007117 0.229969
vt 0.111397 0.229969
vt 0.989688 0.479370
vt 0.875064 0.229969
vt 0.989688 0.229969
vt 0.529621 0.479370
vt 0.513308 0.229969
vt 0.529621 0.229969
vt 0.875064 0.479371
vt 0.010386 0.643148
vt 0.193145 0.651043
vt 0.110597 0.831409
vt 0.110596 0.823695
vt 0.193145 0.643148
vt 0.010386 0.651043
vt 0.518510 0.975852
vt 0.116808 0.983327
vt 0.012583 0.983327
vt 0.006372 0.831409
vt 0.006371 0.823695
vt 0.994643 0.983327
vt 0.014383 0.702854
vt 0.110602 0.697963
vt 0.102595 0.702854
vt 0.110602 0.807016
vt 0.102595 0.807016
vt 0.006377 0.807016
vt 0.006377 0.697963
vt 0.014380 0.818805
vt 0.014383 0.807017
vt 0.102591 0.818805
vt 0.882860 0.703453
vt 0.988435 0.697963
vt 0.979446 0.703453
vt 0.988435 0.807016
vt 0.979446 0.807016
vt 0.873871 0.807016
vt 0.873871 0.697963
vt 0.882856 0.818205
vt 0.979443 0.818205
vt 0.882860 0.807017
vt 0.114691 0.809517
vt 0.508212 0.809749
vt 0.508209 0.821432
vt 0.114687 0.821200
vt 0.869847 0.809477
vt 0.532627 0.821472
vt 0.869843 0.821241
vt 0.532630 0.809708
vt 0.187282 0.638143
vt 0.187282 0.636718
vt 0.187282 0.636718
vt 0.187282 0.626076
vt 0.187282 0.625046
vt 0.193145 0.519461
vt 0.187282 0.519461
vt 0.193145 0.638143
vt 0.193145 0.626076
vt 0.187282 0.519461
vt 0.187282 0.521916
vt 0.193145 0.625047
vt 0.187282 0.625047
vt 0.193145 0.636718
vt 0.187282 0.521916
vt 0.642907 0.771400
vt 0.560008 0.670642
vt 0.642907 0.670642
vt 0.560008 0.771401
vt 0.642903 0.782803
vt 0.560004 0.782803
vt 0.193145 0.521916
vt 0.193145 0.625046
vt 0.193145 0.636718
vt 0.193145 0.521916
vt 0.187788 0.626077
vt 0.187788 0.523204
vt 0.187788 0.624753
vt 0.187788 0.626076
vt 0.187788 0.635724
vt 0.187788 0.624752
vt 0.193145 0.520075
vt 0.193145 0.626077
vt 0.187788 0.520075
vt 0.187788 0.637529
vt 0.192257 0.523204
vt 0.187788 0.523204
vt 0.192257 0.635724
vt 0.192257 0.635724
vt 0.187788 0.635724
vt 0.807391 0.768440
vt 0.717551 0.669228
vt 0.807391 0.669228
vt 0.717550 0.768441
vt 0.807387 0.779159
vt 0.717547 0.779159
vt 0.192257 0.624752
vt 0.192257 0.624753
vt 0.192257 0.523204
vt 0.190143 0.628668
vt 0.190143 0.640565
vt 0.193145 0.628874
vt 0.190143 0.628637
vt 0.193145 0.640832
vt 0.190143 0.628874
vt 0.190143 0.640832
vt 0.190143 0.640801
vt 0.193432 0.628904
vt 0.190143 0.628904
vt 0.506615 0.672044
vt 0.114723 0.683436
vt 0.114726 0.671813
vt 0.193432 0.640801
vt 0.193433 0.640565
vt 0.193433 0.628668
vt 0.190163 0.628595
vt 0.190163 0.628926
vt 0.190163 0.628832
vt 0.190163 0.640637
vt 0.193145 0.640637
vt 0.193145 0.628595
vt 0.193006 0.640776
vt 0.190163 0.640776
vt 0.190163 0.640543
vt 0.190163 0.628693
vt 0.474044 0.771797
vt 0.141147 0.760447
vt 0.474047 0.760219
vt 0.193006 0.640543
vt 0.193006 0.628693
vt 0.193006 0.628926
vt 0.007122 0.479371
vt 0.010386 0.514456
vt 0.875069 0.479371
vt 0.010386 0.626077
vt 0.010386 0.514455
vt 0.513312 0.479371
vt 0.010386 0.626320
vt 0.010386 0.514456
vt 0.988430 0.831409
vt 0.012582 0.975614
vt 0.513312 0.479371
vt 0.529625 0.229969
vt 0.007117 0.479371
vt 0.513308 0.479371
vt 0.010386 0.651043
vt 0.193145 0.651043
vt 0.506611 0.683667
vt 0.141144 0.772025
vn 0.0000 -1.0000 0.0000
vn 0.0000 0.0003 -1.0000
vn 0.0000 0.0000 -1.0000
vn 0.0000 -0.0000 1.0000
vn -1.0000 -0.0000 -0.0000
vn 0.0000 -0.0003 1.0000
vn 1.0000 -0.0000 0.0000
vn 0.0000 -1.0000 -0.0006
vn -0.0000 -1.0000 0.0007
vn 0.0000 1.0000 -0.0000
vn -0.0000 1.0000 0.0006
vn 0.0000 1.0000 -0.0007
vn 0.0000 -0.0001 -1.0000
vn -0.0000 0.0001 1.0000
vn 1.0000 -0.0002 -0.0000
vn 1.0000 0.0002 -0.0000
vn 1.0000 -0.0001 -0.0000
vn 1.0000 0.0001 -0.0000
usemtl Material
s off
f 50/1/1 4/2/1 49/3/1
f 16/4/2 59/5/2 57/6/2
f 2/7/3 70/8/3 6/9/3
f 52/10/4 3/11/4 50/12/4
f 7/13/5 4/14/5 3/15/5
f 49/16/3 8/17/3 61/18/3
f 56/19/1 12/20/1 55/21/1
f 21/22/2 120/23/2 33/24/2
f 13/25/4 89/26/4 9/27/4
f 65/28/4 11/29/4 56/30/4
f 15/31/5 12/32/5 11/33/5
f 55/34/3 16/4/3 57/6/3
f 18/35/1 20/36/1 17/37/1
f 52/10/6 28/38/6 7/39/6
f 66/40/7 18/41/7 17/42/7
f 62/43/4 19/44/4 18/45/4
f 19/46/5 24/47/5 20/48/5
f 17/49/3 24/50/3 66/51/3
f 30/52/1 91/53/1 29/54/1
f 27/55/5 23/56/5 8/57/5
f 35/58/5 44/59/5 32/60/5
f 68/61/7 46/62/7 64/63/7
f 35/58/5 48/64/5 47/65/5
f 59/66/7 42/67/7 67/68/7
f 68/61/7 42/67/7 45/69/7
f 7/13/5 27/55/5 8/57/5
f 23/56/5 35/58/5 24/47/5
f 6/9/2 74/70/2 26/71/2
f 62/72/7 68/61/7 64/63/7
f 24/47/5 32/60/5 15/31/5
f 51/73/2 107/74/2 53/75/2
f 15/31/5 31/76/5 16/77/5
f 8/78/8 62/79/8 61/80/8
f 65/81/9 24/82/9 15/83/9
f 39/84/10 38/85/10 37/86/10
f 43/87/10 42/88/10 41/89/10
f 47/90/10 46/91/10 45/92/10
f 46/91/11 39/84/11 37/86/11
f 47/90/12 42/88/12 44/93/12
f 31/94/13 41/95/13 59/5/13
f 64/63/7 37/96/7 63/97/7
f 54/98/14 40/99/14 28/38/14
f 36/100/5 39/101/5 48/64/5
f 27/55/5 40/102/5 39/101/5
f 63/97/7 38/103/7 54/104/7
f 31/76/5 44/59/5 43/105/5
f 2/106/7 49/107/7 1/108/7
f 1/108/7 61/109/7 5/110/7
f 2/106/7 52/111/7 50/112/7
f 26/113/7 63/97/7 54/104/7
f 26/113/7 52/111/7 6/114/7
f 25/115/7 61/109/7 63/97/7
f 10/116/7 55/117/7 9/118/7
f 9/118/7 57/119/7 13/120/7
f 10/116/7 65/121/7 56/122/7
f 30/123/7 59/66/7 67/68/7
f 29/124/7 57/119/7 59/66/7
f 30/123/7 65/121/7 14/125/7
f 51/126/7 62/72/7 22/127/7
f 34/128/7 63/97/7 53/129/7
f 51/126/7 63/97/7 61/109/7
f 34/128/7 62/72/7 64/63/7
f 58/130/7 66/40/7 65/121/7
f 33/131/7 67/68/7 68/61/7
f 58/130/7 67/68/7 60/132/7
f 33/131/7 66/40/7 21/133/7
f 73/134/7 80/135/7 79/136/7
f 69/137/7 79/136/7 75/138/7
f 1/139/10 72/140/10 2/7/10
f 25/141/6 69/137/6 5/142/6
f 26/71/1 73/134/1 25/141/1
f 5/142/4 71/143/4 1/139/4
f 78/144/4 82/145/4 76/146/4
f 76/146/6 86/147/6 80/135/6
f 69/137/7 77/148/7 71/143/7
f 70/8/7 80/135/7 74/70/7
f 70/8/7 78/144/7 76/146/7
f 72/140/7 77/148/7 78/144/7
f 81/149/7 84/150/7 83/151/7
f 82/152/7 85/153/7 86/154/7
f 77/148/1 84/155/1 78/144/1
f 79/136/2 81/156/2 75/138/2
f 79/136/10 86/147/10 85/157/10
f 75/138/3 83/158/3 77/148/3
f 88/159/7 96/160/7 94/161/7
f 87/162/7 97/163/7 93/164/7
f 29/54/6 87/162/6 13/25/6
f 10/165/3 88/159/3 14/166/3
f 9/27/10 90/167/10 10/165/10
f 14/166/2 92/168/2 30/52/2
f 93/164/3 101/169/3 95/170/3
f 97/163/10 104/171/10 103/172/10
f 90/167/7 95/170/7 96/160/7
f 88/159/7 98/173/7 92/168/7
f 91/53/7 98/173/7 97/163/7
f 87/162/7 95/170/7 89/26/7
f 99/174/7 102/175/7 101/176/7
f 100/177/7 103/178/7 104/179/7
f 97/163/2 99/180/2 93/164/2
f 96/160/4 100/181/4 94/161/4
f 95/170/1 102/182/1 96/160/1
f 94/161/6 104/171/6 98/173/6
f 107/74/7 109/183/7 111/184/7
f 22/185/11 105/186/11 51/73/11
f 34/187/6 106/188/6 22/185/6
f 53/75/8 108/189/8 34/187/8
f 112/190/2 114/191/2 110/192/2
f 105/186/7 110/192/7 109/183/7
f 106/188/7 112/190/7 110/192/7
f 108/189/7 111/184/7 112/190/7
f 114/193/7 115/194/7 113/195/7
f 111/184/11 116/196/11 112/190/11
f 109/183/6 115/197/6 111/184/6
f 110/192/8 113/198/8 109/183/8
f 117/199/7 122/200/7 118/201/7
f 33/24/9 119/202/9 60/203/9
f 60/203/6 117/199/6 58/204/6
f 58/204/12 118/201/12 21/22/12
f 122/200/6 128/205/6 124/206/6
f 118/201/7 124/206/7 120/23/7
f 120/23/7 123/207/7 119/202/7
f 119/202/7 121/208/7 117/199/7
f 127/209/7 126/210/7 125/211/7
f 124/206/12 127/212/12 123/207/12
f 123/207/2 125/213/2 121/208/2
f 121/208/9 126/214/9 122/200/9
f 50/1/1 3/215/1 4/2/1
f 16/4/2 31/94/2 59/5/2
f 2/7/3 72/140/3 70/8/3
f 52/10/4 7/39/4 3/11/4
f 7/13/5 8/57/5 4/14/5
f 49/16/3 4/216/3 8/17/3
f 56/19/1 11/217/1 12/20/1
f 21/22/2 118/201/2 120/23/2
f 13/25/4 87/162/4 89/26/4
f 65/28/4 15/218/4 11/29/4
f 15/31/5 16/77/5 12/32/5
f 55/34/3 12/219/3 16/4/3
f 18/35/1 19/220/1 20/36/1
f 52/10/6 54/98/6 28/38/6
f 66/40/7 62/72/7 18/41/7
f 62/43/4 23/221/4 19/44/4
f 19/46/5 23/56/5 24/47/5
f 17/49/3 20/222/3 24/50/3
f 30/52/1 92/168/1 91/53/1
f 27/55/5 36/100/5 23/56/5
f 35/58/5 47/65/5 44/59/5
f 68/61/7 45/69/7 46/62/7
f 35/58/5 36/100/5 48/64/5
f 59/66/7 41/223/7 42/67/7
f 68/61/7 67/68/7 42/67/7
f 7/13/5 28/224/5 27/55/5
f 23/56/5 36/100/5 35/58/5
f 6/9/2 70/8/2 74/70/2
f 62/72/7 66/40/7 68/61/7
f 24/47/5 35/58/5 32/60/5
f 51/73/2 105/186/2 107/74/2
f 15/31/5 32/60/5 31/76/5
f 8/78/8 23/225/8 62/79/8
f 65/81/9 66/226/9 24/82/9
f 39/84/10 40/227/10 38/85/10
f 43/87/10 44/93/10 42/88/10
f 47/90/10 48/228/10 46/91/10
f 46/91/11 48/228/11 39/84/11
f 47/90/12 45/92/12 42/88/12
f 31/94/13 43/229/13 41/95/13
f 64/63/7 46/62/7 37/96/7
f 54/98/14 38/230/14 40/99/14
f 36/100/5 27/55/5 39/101/5
f 27/55/5 28/224/5 40/102/5
f 63/97/7 37/96/7 38/103/7
f 31/76/5 32/60/5 44/59/5
f 2/106/7 50/112/7 49/107/7
f 1/108/7 49/107/7 61/109/7
f 2/106/7 6/114/7 52/111/7
f 26/113/7 25/115/7 63/97/7
f 26/113/7 54/104/7 52/111/7
f 25/115/7 5/110/7 61/109/7
f 10/116/7 56/122/7 55/117/7
f 9/118/7 55/117/7 57/119/7
f 10/116/7 14/125/7 65/121/7
f 30/123/7 29/124/7 59/66/7
f 29/124/7 13/120/7 57/119/7
f 30/123/7 67/68/7 65/121/7
f 51/126/7 61/109/7 62/72/7
f 34/128/7 64/63/7 63/97/7
f 51/126/7 53/129/7 63/97/7
f 34/128/7 22/127/7 62/72/7
f 58/130/7 21/133/7 66/40/7
f 33/131/7 60/132/7 67/68/7
f 58/130/7 65/121/7 67/68/7
f 33/131/7 68/61/7 66/40/7
f 73/134/7 74/70/7 80/135/7
f 69/137/7 73/134/7 79/136/7
f 1/139/10 71/143/10 72/140/10
f 25/141/6 73/134/6 69/137/6
f 26/71/1 74/70/1 73/134/1
f 5/142/4 69/137/4 71/143/4
f 78/144/4 84/155/4 82/145/4
f 76/146/6 82/145/6 86/147/6
f 69/137/7 75/138/7 77/148/7
f 70/8/7 76/146/7 80/135/7
f 70/8/7 72/140/7 78/144/7
f 72/140/7 71/143/7 77/148/7
f 81/149/7 82/152/7 84/150/7
f 82/152/7 81/149/7 85/153/7
f 77/148/1 83/158/1 84/155/1
f 79/136/2 85/157/2 81/156/2
f 79/136/10 80/135/10 86/147/10
f 75/138/3 81/156/3 83/158/3
f 88/159/7 90/167/7 96/160/7
f 87/162/7 91/53/7 97/163/7
f 29/54/6 91/53/6 87/162/6
f 10/165/3 90/167/3 88/159/3
f 9/27/10 89/26/10 90/167/10
f 14/166/2 88/159/2 92/168/2
f 93/164/3 99/180/3 101/169/3
f 97/163/10 98/173/10 104/171/10
f 90/167/7 89/26/7 95/170/7
f 88/159/7 94/161/7 98/173/7
f 91/53/7 92/168/7 98/173/7
f 87/162/7 93/164/7 95/170/7
f 99/174/7 100/177/7 102/175/7
f 100/177/7 99/174/7 103/178/7
f 97/163/2 103/172/2 99/180/2
f 96/160/4 102/182/4 100/181/4
f 95/170/1 101/169/1 102/182/1
f 94/161/6 100/181/6 104/171/6
f 107/74/7 105/186/7 109/183/7
f 22/185/11 106/188/11 105/186/11
f 34/187/6 108/189/6 106/188/6
f 53/75/8 107/74/8 108/189/8
f 112/190/2 116/196/2 114/191/2
f 105/186/15 106/188/15 110/192/15
f 106/188/7 108/189/7 112/190/7
f 108/189/16 107/74/16 111/184/16
f 114/193/7 116/231/7 115/194/7
f 111/184/11 115/197/11 116/196/11
f 109/183/6 113/198/6 115/197/6
f 110/192/8 114/191/8 113/198/8
f 117/199/17 121/208/17 122/200/17
f 33/24/9 120/23/9 119/202/9
f 60/203/6 119/202/6 117/199/6
f 58/204/12 117/199/12 118/201/12
f 122/200/6 126/214/6 128/205/6
f 118/201/7 122/200/7 124/206/7
f 120/23/18 124/206/18 123/207/18
f 119/202/7 123/207/7 121/208/7
f 127/209/7 128/232/7 126/210/7
f 124/206/12 128/205/12 127/212/12
f 123/207/2 127/212/2 125/213/2
f 121/208/9 125/213/9 126/214/9
