# Blender v2.79 (sub 0) OBJ File: 'BookS.blend'
# www.blender.org
mtllib BookS.mtl
o Book1_Cube
v 0.661098 -0.000000 -0.148639
v 0.661098 -0.000000 0.148640
v -0.735489 -0.000000 0.148640
v -0.735489 -0.000000 -0.148640
v 0.661099 0.444989 -0.148639
v 0.661098 0.444989 0.148640
v -0.735489 0.444989 0.148639
v -0.735489 0.444989 -0.148639
v 0.609705 -0.000000 -0.148639
v 0.526414 -0.000000 -0.148639
v 0.429628 -0.000000 -0.148639
v 0.364740 -0.000000 -0.148639
v 0.264764 -0.000000 -0.148639
v 0.214352 -0.000000 -0.148639
v 0.112413 -0.000000 -0.148639
v -0.083748 -0.000000 -0.148639
v -0.144465 -0.000000 -0.148639
v -0.224321 -0.000000 -0.148639
v -0.363065 -0.000000 -0.148639
v -0.426727 -0.000000 -0.148640
v -0.549277 -0.000000 -0.148640
v -0.670355 -0.000000 -0.148640
v 0.609705 -0.000000 0.148640
v 0.526414 -0.000000 0.148640
v 0.429628 -0.000000 0.148640
v 0.364740 -0.000000 0.148640
v 0.264764 -0.000000 0.148640
v 0.214352 -0.000000 0.148640
v 0.112413 -0.000000 0.148640
v -0.083748 -0.000000 0.148640
v -0.144465 -0.000000 0.148640
v -0.224321 -0.000000 0.148640
v -0.363066 -0.000000 0.148640
v -0.426727 -0.000000 0.148640
v -0.549277 -0.000000 0.148640
v -0.670355 -0.000000 0.148640
v 0.609706 0.444989 -0.148639
v 0.526415 0.444989 -0.148639
v 0.429628 0.444989 -0.148639
v 0.364740 0.444989 -0.148639
v 0.264764 0.444989 -0.148639
v 0.214352 0.444989 -0.148639
v 0.112413 0.444989 -0.148639
v -0.083748 0.444989 -0.148639
v -0.144465 0.444989 -0.148639
v -0.224321 0.444989 -0.148639
v -0.363065 0.444989 -0.148639
v -0.426727 0.444989 -0.148639
v -0.549277 0.444989 -0.148639
v -0.670355 0.444989 -0.148639
v 0.609705 0.444989 0.148640
v 0.526414 0.444989 0.148640
v 0.429628 0.444989 0.148640
v 0.364739 0.444989 0.148640
v 0.264763 0.444989 0.148640
v 0.214352 0.444989 0.148640
v 0.112413 0.444989 0.148640
v -0.083749 0.444989 0.148640
v -0.144465 0.444989 0.148640
v -0.224321 0.444989 0.148640
v -0.363066 0.444989 0.148640
v -0.426727 0.444989 0.148640
v -0.549278 0.444989 0.148639
v -0.670355 0.444989 0.148639
v 0.014333 -0.000000 -0.148639
v 0.014332 -0.000000 0.148640
v 0.014333 0.444989 -0.148639
v 0.014332 0.444989 0.148640
vt 0.056480 0.657037
vt 0.012608 0.535809
vt 0.056479 0.535809
vt 0.012608 0.414583
vt 0.056479 0.293358
vt 0.056478 0.414583
vt 0.972835 0.242482
vt 0.833576 0.034029
vt 0.972835 0.034029
vt 0.060210 0.979343
vt 0.015389 0.673124
vt 0.060210 0.673124
vt 0.808515 0.245582
vt 0.669256 0.037129
vt 0.808515 0.037129
vt 0.953281 0.535809
vt 0.918658 0.414583
vt 0.953274 0.414583
vt 0.918665 0.535809
vt 0.862558 0.414583
vt 0.862564 0.535809
vt 0.797368 0.414583
vt 0.797374 0.535809
vt 0.753663 0.414583
vt 0.753668 0.535809
vt 0.686324 0.414583
vt 0.686328 0.535809
vt 0.652370 0.414583
vt 0.652374 0.535809
vt 0.583709 0.414583
vt 0.517650 0.535809
vt 0.451586 0.414583
vt 0.517648 0.414583
vt 0.451588 0.535809
vt 0.410690 0.414583
vt 0.410692 0.535809
vt 0.356903 0.414583
vt 0.356905 0.535809
vt 0.263452 0.414583
vt 0.263453 0.535809
vt 0.220574 0.414583
vt 0.138031 0.535809
vt 0.138030 0.414583
vt 0.976450 0.979343
vt 0.941084 0.673124
vt 0.976450 0.673124
vt 0.941084 0.979343
vt 0.883768 0.673124
vt 0.883767 0.979343
vt 0.817164 0.673124
vt 0.817164 0.979343
vt 0.772511 0.673124
vt 0.772511 0.979343
vt 0.703713 0.673124
vt 0.703712 0.979343
vt 0.669022 0.673124
vt 0.669022 0.979343
vt 0.598873 0.673124
vt 0.531378 0.979343
vt 0.463884 0.673124
vt 0.531378 0.673124
vt 0.463884 0.979343
vt 0.422102 0.673124
vt 0.422102 0.979343
vt 0.367149 0.673124
vt 0.367149 0.979343
vt 0.271672 0.673124
vt 0.271672 0.979343
vt 0.227863 0.673124
vt 0.227863 0.979343
vt 0.143530 0.673124
vt 0.143530 0.979343
vt 0.953268 0.293357
vt 0.918653 0.293357
vt 0.862552 0.293357
vt 0.797361 0.293357
vt 0.753658 0.293357
vt 0.686319 0.293357
vt 0.652365 0.293357
vt 0.517643 0.293357
vt 0.451582 0.293357
vt 0.410686 0.293357
vt 0.356900 0.293357
vt 0.263449 0.293358
vt 0.220572 0.293358
vt 0.138029 0.293358
vt 0.953285 0.657036
vt 0.918669 0.657036
vt 0.862568 0.657036
vt 0.797378 0.657036
vt 0.753672 0.657036
vt 0.686333 0.657036
vt 0.652378 0.657036
vt 0.583712 0.535809
vt 0.517654 0.657036
vt 0.451591 0.657036
vt 0.410695 0.657036
vt 0.356908 0.657037
vt 0.263456 0.657037
vt 0.220575 0.535809
vt 0.220576 0.657037
vt 0.138032 0.657037
vt 0.583716 0.657036
vt 0.583705 0.293357
vt 0.598872 0.979343
vt 0.012608 0.657037
vt 0.012608 0.293358
vt 0.833576 0.242482
vt 0.015388 0.979343
vt 0.669256 0.245582
vn 0.0000 -1.0000 0.0000
vn 0.0000 1.0000 -0.0000
vn 1.0000 -0.0000 0.0000
vn 0.0000 0.0000 1.0000
vn -1.0000 -0.0000 -0.0000
vn 0.0000 0.0000 -1.0000
usemtl Material
s off
f 36/1/1 4/2/1 22/3/1
f 8/4/2 64/5/2 50/6/2
f 5/7/3 2/8/3 1/9/3
f 64/10/4 3/11/4 36/12/4
f 7/13/5 4/14/5 3/15/5
f 22/3/6 8/4/6 50/6/6
f 1/16/6 37/17/6 5/18/6
f 9/19/6 38/20/6 37/17/6
f 10/21/6 39/22/6 38/20/6
f 11/23/6 40/24/6 39/22/6
f 12/25/6 41/26/6 40/24/6
f 13/27/6 42/28/6 41/26/6
f 14/29/6 43/30/6 42/28/6
f 65/31/6 44/32/6 67/33/6
f 16/34/6 45/35/6 44/32/6
f 17/36/6 46/37/6 45/35/6
f 18/38/6 47/39/6 46/37/6
f 19/40/6 48/41/6 47/39/6
f 48/41/6 21/42/6 49/43/6
f 21/42/6 50/6/6 49/43/6
f 6/44/4 23/45/4 2/46/4
f 51/47/4 24/48/4 23/45/4
f 52/49/4 25/50/4 24/48/4
f 53/51/4 26/52/4 25/50/4
f 54/53/4 27/54/4 26/52/4
f 55/55/4 28/56/4 27/54/4
f 56/57/4 29/58/4 28/56/4
f 68/59/4 30/60/4 66/61/4
f 58/62/4 31/63/4 30/60/4
f 59/64/4 32/65/4 31/63/4
f 60/66/4 33/67/4 32/65/4
f 61/68/4 34/69/4 33/67/4
f 62/70/4 35/71/4 34/69/4
f 63/72/4 36/12/4 35/71/4
f 37/17/2 6/73/2 5/18/2
f 38/20/2 51/74/2 37/17/2
f 39/22/2 52/75/2 38/20/2
f 40/24/2 53/76/2 39/22/2
f 41/26/2 54/77/2 40/24/2
f 42/28/2 55/78/2 41/26/2
f 43/30/2 56/79/2 42/28/2
f 44/32/2 68/80/2 67/33/2
f 45/35/2 58/81/2 44/32/2
f 46/37/2 59/82/2 45/35/2
f 47/39/2 60/83/2 46/37/2
f 48/41/2 61/84/2 47/39/2
f 49/43/2 62/85/2 48/41/2
f 50/6/2 63/86/2 49/43/2
f 2/87/1 9/19/1 1/16/1
f 23/88/1 10/21/1 9/19/1
f 24/89/1 11/23/1 10/21/1
f 25/90/1 12/25/1 11/23/1
f 26/91/1 13/27/1 12/25/1
f 27/92/1 14/29/1 13/27/1
f 28/93/1 15/94/1 14/29/1
f 66/95/1 16/34/1 65/31/1
f 30/96/1 17/36/1 16/34/1
f 31/97/1 18/38/1 17/36/1
f 32/98/1 19/40/1 18/38/1
f 33/99/1 20/100/1 19/40/1
f 34/101/1 21/42/1 20/100/1
f 35/102/1 22/3/1 21/42/1
f 29/103/1 65/31/1 15/94/1
f 67/33/2 57/104/2 43/30/2
f 57/105/4 66/61/4 29/58/4
f 15/94/6 67/33/6 43/30/6
f 36/1/1 3/106/1 4/2/1
f 8/4/2 7/107/2 64/5/2
f 5/7/3 6/108/3 2/8/3
f 64/10/4 7/109/4 3/11/4
f 7/13/5 8/110/5 4/14/5
f 22/3/6 4/2/6 8/4/6
f 1/16/6 9/19/6 37/17/6
f 9/19/6 10/21/6 38/20/6
f 10/21/6 11/23/6 39/22/6
f 11/23/6 12/25/6 40/24/6
f 12/25/6 13/27/6 41/26/6
f 13/27/6 14/29/6 42/28/6
f 14/29/6 15/94/6 43/30/6
f 65/31/6 16/34/6 44/32/6
f 16/34/6 17/36/6 45/35/6
f 17/36/6 18/38/6 46/37/6
f 18/38/6 19/40/6 47/39/6
f 19/40/6 20/100/6 48/41/6
f 48/41/6 20/100/6 21/42/6
f 21/42/6 22/3/6 50/6/6
f 6/44/4 51/47/4 23/45/4
f 51/47/4 52/49/4 24/48/4
f 52/49/4 53/51/4 25/50/4
f 53/51/4 54/53/4 26/52/4
f 54/53/4 55/55/4 27/54/4
f 55/55/4 56/57/4 28/56/4
f 56/57/4 57/105/4 29/58/4
f 68/59/4 58/62/4 30/60/4
f 58/62/4 59/64/4 31/63/4
f 59/64/4 60/66/4 32/65/4
f 60/66/4 61/68/4 33/67/4
f 61/68/4 62/70/4 34/69/4
f 62/70/4 63/72/4 35/71/4
f 63/72/4 64/10/4 36/12/4
f 37/17/2 51/74/2 6/73/2
f 38/20/2 52/75/2 51/74/2
f 39/22/2 53/76/2 52/75/2
f 40/24/2 54/77/2 53/76/2
f 41/26/2 55/78/2 54/77/2
f 42/28/2 56/79/2 55/78/2
f 43/30/2 57/104/2 56/79/2
f 44/32/2 58/81/2 68/80/2
f 45/35/2 59/82/2 58/81/2
f 46/37/2 60/83/2 59/82/2
f 47/39/2 61/84/2 60/83/2
f 48/41/2 62/85/2 61/84/2
f 49/43/2 63/86/2 62/85/2
f 50/6/2 64/5/2 63/86/2
f 2/87/1 23/88/1 9/19/1
f 23/88/1 24/89/1 10/21/1
f 24/89/1 25/90/1 11/23/1
f 25/90/1 26/91/1 12/25/1
f 26/91/1 27/92/1 13/27/1
f 27/92/1 28/93/1 14/29/1
f 28/93/1 29/103/1 15/94/1
f 66/95/1 30/96/1 16/34/1
f 30/96/1 31/97/1 17/36/1
f 31/97/1 32/98/1 18/38/1
f 32/98/1 33/99/1 19/40/1
f 33/99/1 34/101/1 20/100/1
f 34/101/1 35/102/1 21/42/1
f 35/102/1 36/1/1 22/3/1
f 29/103/1 66/95/1 65/31/1
f 67/33/2 68/80/2 57/104/2
f 57/105/4 68/59/4 66/61/4
f 15/94/6 65/31/6 67/33/6
