# Blender v2.79 (sub 0) OBJ File: 'Komoda.blend'
# www.blender.org
mtllib KomodaD.mtl
o Cube.002_Cube.007
v -1.486568 0.128247 0.630751
v -1.486568 1.337281 0.630751
v -1.564809 0.000000 -0.630751
v -1.564809 1.366295 -0.630751
v 1.486568 0.128247 0.630751
v 1.486568 1.337281 0.630751
v 1.564809 0.000000 -0.630751
v 1.564809 1.366295 -0.630751
v 0.000000 0.000000 -0.630751
v 0.000000 1.366295 -0.630751
v -0.038962 0.142812 0.630751
v -0.078240 1.337281 0.630751
v -1.486568 0.949906 0.630751
v -1.564809 0.920892 -0.630751
v 1.564809 0.920892 -0.630751
v 1.486568 0.949906 0.630751
v -0.078240 0.949906 0.630751
v 0.000000 0.920892 -0.630751
v -1.486568 0.891879 0.630751
v -1.564809 1.366295 0.630751
v 0.078240 1.337281 0.630751
v 0.078240 0.949906 0.630751
v 1.564809 1.366295 0.630751
v 0.000000 1.366295 0.630751
v 1.486568 0.891879 0.630751
v -0.038962 0.877314 0.630751
v -1.564809 0.000000 0.630751
v 0.038962 0.142812 0.630751
v 0.038962 0.877314 0.630751
v -1.564809 0.920892 0.630751
v 1.564809 0.920892 0.630751
v 1.564809 0.000000 0.630751
v 0.000000 0.000000 0.630751
v 0.000000 0.920892 0.630751
v -1.486568 0.949906 0.571008
v -1.486568 1.337281 0.571008
v -0.078240 1.337281 0.571008
v -0.078240 0.949906 0.571008
v 1.486568 1.337281 0.571008
v 0.078240 1.337281 0.571008
v 1.486568 0.949906 0.571008
v 0.078240 0.949906 0.571008
v 0.000000 0.142812 0.630751
v 0.000000 0.891879 0.630751
v -0.078240 0.891879 0.630751
v -0.078240 0.128247 0.630751
v 0.078240 0.891879 0.630751
v 0.078240 0.128247 0.630751
v 0.000000 0.128247 0.630751
v 0.000000 0.877314 0.630751
v 0.000000 0.877314 0.612324
v 0.000000 0.142812 0.612324
v -0.038962 0.877314 0.612324
v -0.038962 0.142812 0.612324
v 0.038962 0.877314 0.612324
v 0.038962 0.142812 0.612324
v -1.486568 0.128247 -0.404758
v -0.078240 0.128247 -0.404758
v -0.078240 0.891879 -0.404758
v -1.486568 0.891879 -0.404758
v 1.486568 0.891879 -0.404758
v 1.486568 0.128247 -0.404758
v 0.078240 0.128247 -0.404758
v 0.078240 0.891879 -0.404758
v -1.564809 0.511717 -0.630751
v -1.564809 0.471441 -0.630751
v 1.564809 0.511717 -0.630751
v 1.564809 0.471441 -0.630751
v 1.564809 0.511717 0.630751
v 1.564809 0.471441 0.630751
v 0.000000 0.511717 -0.630751
v 0.000000 0.471441 -0.630751
v -1.564809 0.471441 0.630751
v -1.564809 0.511717 0.630751
v -0.078240 0.514788 0.630751
v -0.078240 0.481390 0.630751
v -1.486568 0.481390 0.630751
v -1.486568 0.514788 0.630751
v 1.486568 0.514788 0.630751
v 1.486568 0.481390 0.630751
v 0.078240 0.514788 0.630751
v 0.078240 0.481390 0.630751
v -0.038962 0.514151 0.630751
v -0.038962 0.482027 0.630751
v 0.038962 0.514151 0.630751
v 0.038962 0.482027 0.630751
v 0.000000 0.514151 0.612324
v 0.000000 0.482027 0.612324
v -0.038962 0.514151 0.612324
v -0.038962 0.482027 0.612324
v 0.038962 0.514151 0.612324
v 0.038962 0.482027 0.612324
v -0.078240 0.514788 -0.404758
v -0.078240 0.481390 -0.404758
v -1.486568 0.481390 -0.404758
v -1.486568 0.514788 -0.404758
v 1.486568 0.514788 -0.404758
v 1.486568 0.481390 -0.404758
v 0.078240 0.514788 -0.404758
v 0.078240 0.481390 -0.404758
vt 0.234425 0.518350
vt 0.036866 0.415923
vt 0.234425 0.415923
vt 0.691531 0.761598
vt 0.408930 0.658070
vt 0.691530 0.658070
vt 0.235372 0.519605
vt 0.037813 0.417177
vt 0.235372 0.417177
vt 0.084511 0.021347
vt 0.261131 0.011212
vt 0.261131 0.021347
vt 0.973722 0.785286
vt 0.689898 0.981614
vt 0.689898 0.785286
vt 0.973889 0.785096
vt 0.689284 0.981605
vt 0.689283 0.785096
vt 0.408018 0.981605
vt 0.408018 0.785096
vt 0.408123 0.981614
vt 0.408123 0.785286
vt 0.737697 0.019905
vt 0.499586 0.030040
vt 0.499586 0.019905
vt 0.974131 0.761598
vt 0.974130 0.658070
vt 0.691531 0.562963
vt 0.974130 0.562963
vt 0.532000 0.298014
vt 0.745212 0.151893
vt 0.745212 0.298013
vt 0.905631 0.067205
vt 0.746795 0.147069
vt 0.746795 0.067205
vt 0.037812 0.323080
vt 0.235372 0.323080
vt 0.408930 0.562963
vt 0.036866 0.321826
vt 0.234425 0.321826
vt 0.424714 0.753064
vt 0.410779 0.671121
vt 0.424803 0.676476
vt 0.677293 0.753103
vt 0.410675 0.758414
vt 0.677338 0.676532
vt 0.691320 0.758457
vt 0.691337 0.669985
vt 0.957894 0.753129
vt 0.705354 0.753107
vt 0.957936 0.676470
vt 0.972095 0.758393
vt 0.958056 0.753045
vt 0.705396 0.676532
vt 0.971957 0.671115
vt 0.424959 0.468153
vt 0.691362 0.444532
vt 0.677343 0.468170
vt 0.677350 0.665826
vt 0.691352 0.665188
vt 0.424814 0.665773
vt 0.410894 0.566985
vt 0.424918 0.567553
vt 0.957761 0.468152
vt 0.971822 0.559555
vt 0.957802 0.561391
vt 0.705382 0.468170
vt 0.971766 0.444511
vt 0.691362 0.468170
vt 0.957920 0.665767
vt 0.705390 0.665826
vt 0.564250 0.413692
vt 0.335164 0.349004
vt 0.564250 0.349004
vt 0.885817 0.412357
vt 0.656731 0.347670
vt 0.885817 0.347670
vt 0.499242 0.011212
vt 0.499242 0.021347
vt 0.322966 0.030040
vt 0.322966 0.019905
vt 0.739032 0.011212
vt 0.500921 0.021347
vt 0.500921 0.011212
vt 0.914319 0.019905
vt 0.737697 0.030040
vt 0.915652 0.011212
vt 0.739032 0.021347
vt 0.084856 0.030040
vt 0.084856 0.019905
vt 0.367626 0.650483
vt 0.373658 0.643507
vt 0.373658 0.650483
vt 0.380735 0.643507
vt 0.373657 0.557485
vt 0.380735 0.557485
vt 0.684409 0.663136
vt 0.677358 0.567553
vt 0.684390 0.567435
vt 0.698344 0.470855
vt 0.705379 0.561399
vt 0.698343 0.561517
vt 0.684381 0.470855
vt 0.691363 0.470855
vt 0.698331 0.663136
vt 0.691370 0.663182
vt 0.367626 0.557485
vt 0.367626 0.643507
vt 0.361594 0.549876
vt 0.367624 0.469527
vt 0.367626 0.549876
vt 0.373656 0.462551
vt 0.367624 0.462551
vt 0.354515 0.469527
vt 0.354517 0.549876
vt 0.361595 0.650483
vt 0.361593 0.469527
vt 0.361593 0.462551
vt 0.532000 0.068356
vt 0.745212 0.068356
vt 0.745139 0.148398
vt 0.531926 0.064861
vt 0.745139 0.064861
vt 0.533582 0.293189
vt 0.746795 0.293189
vt 0.530877 0.295206
vt 0.744090 0.149086
vt 0.744090 0.295206
vt 0.531926 0.294519
vt 0.745139 0.294519
vt 0.903975 0.148398
vt 0.903975 0.064861
vt 0.902926 0.069222
vt 0.744090 0.069222
vt 0.904048 0.151893
vt 0.904048 0.068356
vt 0.366508 0.069222
vt 0.530877 0.149086
vt 0.366508 0.149086
vt 0.051641 0.741377
vt 0.279395 0.773154
vt 0.051640 0.773124
vt 0.367631 0.068356
vt 0.532000 0.151893
vt 0.367631 0.151893
vt 0.279339 0.952951
vt 0.369213 0.067205
vt 0.533582 0.147069
vt 0.369213 0.147069
vt 0.280128 0.740737
vt 0.050969 0.772607
vt 0.050974 0.740666
vt 0.533582 0.067205
vt 0.280259 0.558814
vt 0.530877 0.069222
vt 0.279453 0.560425
vt 0.279397 0.741407
vt 0.354517 0.557485
vt 0.361595 0.643507
vt 0.354517 0.643507
vt 0.361594 0.557485
vt 0.373657 0.549876
vt 0.705374 0.567553
vt 0.698342 0.567435
vt 0.677352 0.561399
vt 0.684388 0.561517
vt 0.380735 0.549876
vt 0.373656 0.469527
vt 0.380733 0.469527
vt 0.971830 0.561859
vt 0.957806 0.567549
vt 0.410901 0.559559
vt 0.410952 0.444511
vt 0.424922 0.561395
vt 0.234425 0.204148
vt 0.036866 0.312564
vt 0.036866 0.204148
vt 0.234425 0.312564
vt 0.691531 0.553601
vt 0.408930 0.444021
vt 0.691531 0.444021
vt 0.408930 0.553601
vt 0.235372 0.205402
vt 0.037812 0.313818
vt 0.037812 0.205402
vt 0.235372 0.313818
vt 0.367557 0.064861
vt 0.531926 0.148398
vt 0.367557 0.148398
vt 0.279993 0.953331
vt 0.280124 0.772678
vt 0.974130 0.553601
vt 0.974131 0.444021
vt 0.036866 0.518351
vt 0.408930 0.761599
vt 0.037812 0.519605
vt 0.084511 0.011212
vt 0.973722 0.981614
vt 0.973889 0.981605
vt 0.905631 0.147069
vt 0.971921 0.758482
vt 0.335164 0.413692
vt 0.656731 0.412357
vt 0.914319 0.030040
vt 0.915652 0.021347
vt 0.902926 0.149086
vt 0.051584 0.952920
vt 0.051104 0.558742
vt 0.051697 0.560394
vt 0.050839 0.953259
vn -1.0000 0.0000 0.0000
vn 0.0000 0.0000 -1.0000
vn 1.0000 0.0000 0.0000
vn 0.0000 -1.0000 0.0000
vn 0.0000 1.0000 0.0000
vn 0.0000 0.0000 1.0000
usemtl None
s off
f 20/1/1 14/2/1 30/3/1
f 10/4/2 15/5/2 18/6/2
f 8/7/3 31/8/3 15/9/3
f 22/10/3 40/11/3 21/12/3
f 7/13/4 33/14/4 9/15/4
f 4/16/5 24/17/5 10/18/5
f 10/18/5 23/19/5 8/20/5
f 9/15/4 27/21/4 3/22/4
f 2/23/4 37/24/4 12/25/4
f 4/26/2 18/6/2 14/27/2
f 14/27/2 71/28/2 65/29/2
f 47/30/4 61/31/4 25/32/4
f 77/33/3 57/34/3 95/35/3
f 15/9/3 69/36/3 67/37/3
f 18/6/2 67/38/2 71/28/2
f 30/3/1 65/39/1 74/40/1
f 2/41/6 30/42/6 13/43/6
f 12/44/6 20/45/6 2/41/6
f 17/46/6 24/47/6 12/44/6
f 13/43/6 34/48/6 17/46/6
f 6/49/6 24/47/6 21/50/6
f 16/51/6 23/52/6 6/53/6
f 21/50/6 34/48/6 22/54/6
f 22/54/6 31/55/6 16/51/6
f 1/56/6 33/57/6 46/58/6
f 45/59/6 44/60/6 34/48/6
f 19/61/6 74/62/6 78/63/6
f 45/59/6 30/42/6 19/61/6
f 5/64/6 70/65/6 80/66/6
f 48/67/6 32/68/6 5/64/6
f 48/67/6 49/69/6 33/57/6
f 25/70/6 34/48/6 47/71/6
f 37/72/6 35/73/6 38/74/6
f 39/75/6 42/76/6 41/77/6
f 21/12/4 39/78/4 6/79/4
f 12/25/1 38/80/1 17/81/1
f 16/82/5 42/83/5 22/84/5
f 13/85/3 36/86/3 2/23/3
f 6/87/1 41/88/1 16/82/1
f 17/81/5 35/89/5 13/90/5
f 50/91/4 55/92/4 29/93/4
f 49/69/6 46/58/6 33/57/6
f 44/60/6 47/71/6 34/48/6
f 29/94/1 91/95/1 85/96/1
f 26/97/6 75/98/6 83/99/6
f 28/100/6 82/101/6 86/102/6
f 28/100/6 49/69/6 48/67/6
f 11/103/6 49/69/6 43/104/6
f 29/105/6 44/60/6 50/106/6
f 26/97/6 44/60/6 45/59/6
f 87/107/6 55/92/6 51/108/6
f 90/109/6 52/110/6 88/111/6
f 28/112/5 52/110/5 43/113/5
f 11/114/3 90/109/3 84/115/3
f 26/116/4 51/108/4 50/91/4
f 43/113/5 54/117/5 11/118/5
f 61/31/6 99/119/6 97/120/6
f 59/121/6 96/122/6 93/123/6
f 46/124/5 57/34/5 1/125/5
f 5/126/5 63/127/5 48/128/5
f 19/129/4 59/121/4 45/130/4
f 45/131/1 93/123/1 75/132/1
f 82/133/3 63/127/3 100/134/3
f 25/135/1 97/120/1 79/136/1
f 80/137/1 62/138/1 5/139/1
f 79/140/6 82/141/6 80/142/6
f 81/143/3 64/144/3 47/145/3
f 100/146/4 80/142/4 82/141/4
f 76/147/1 58/148/1 46/149/1
f 78/150/6 76/151/6 75/152/6
f 94/153/6 57/34/6 58/148/6
f 75/152/5 96/154/5 78/150/5
f 98/155/6 63/127/6 62/138/6
f 79/140/5 99/156/5 81/157/5
f 83/158/3 53/159/3 26/160/3
f 84/115/3 89/161/3 83/158/3
f 53/159/6 87/107/6 51/108/6
f 89/161/6 88/111/6 87/107/6
f 52/110/6 92/162/6 88/111/6
f 92/162/6 87/107/6 88/111/6
f 29/105/6 81/163/6 47/71/6
f 86/102/6 81/163/6 85/164/6
f 11/103/6 76/165/6 46/58/6
f 84/166/6 75/98/6 76/165/6
f 86/167/1 56/168/1 28/169/1
f 85/96/1 92/162/1 86/167/1
f 25/70/6 69/170/6 31/55/6
f 80/66/6 69/170/6 79/171/6
f 1/56/6 73/172/6 27/173/6
f 77/174/6 74/62/6 73/172/6
f 27/175/1 66/176/1 3/177/1
f 74/40/1 66/176/1 73/178/1
f 72/179/2 7/180/2 9/181/2
f 71/28/2 68/182/2 72/179/2
f 7/183/3 70/184/3 32/185/3
f 67/37/3 70/184/3 68/186/3
f 78/187/3 60/188/3 19/189/3
f 95/190/4 76/151/4 77/191/4
f 66/192/2 9/181/2 3/193/2
f 65/29/2 72/179/2 66/192/2
f 20/1/1 4/194/1 14/2/1
f 10/4/2 8/195/2 15/5/2
f 8/7/3 23/196/3 31/8/3
f 22/10/3 42/197/3 40/11/3
f 7/13/4 32/198/4 33/14/4
f 4/16/5 20/199/5 24/17/5
f 10/18/5 24/17/5 23/19/5
f 9/15/4 33/14/4 27/21/4
f 2/23/4 36/86/4 37/24/4
f 4/26/2 10/4/2 18/6/2
f 14/27/2 18/6/2 71/28/2
f 47/30/4 64/144/4 61/31/4
f 77/33/3 1/200/3 57/34/3
f 15/9/3 31/8/3 69/36/3
f 18/6/2 15/5/2 67/38/2
f 30/3/1 14/2/1 65/39/1
f 2/41/6 20/45/6 30/42/6
f 12/44/6 24/47/6 20/45/6
f 17/46/6 34/48/6 24/47/6
f 13/43/6 30/42/6 34/48/6
f 6/49/6 23/201/6 24/47/6
f 16/51/6 31/55/6 23/52/6
f 21/50/6 24/47/6 34/48/6
f 22/54/6 34/48/6 31/55/6
f 1/56/6 27/173/6 33/57/6
f 19/61/6 30/42/6 74/62/6
f 45/59/6 34/48/6 30/42/6
f 5/64/6 32/68/6 70/65/6
f 48/67/6 33/57/6 32/68/6
f 25/70/6 31/55/6 34/48/6
f 37/72/6 36/202/6 35/73/6
f 39/75/6 40/203/6 42/76/6
f 21/12/4 40/11/4 39/78/4
f 12/25/1 37/24/1 38/80/1
f 16/82/5 41/88/5 42/83/5
f 13/85/3 35/204/3 36/86/3
f 6/87/1 39/205/1 41/88/1
f 17/81/5 38/80/5 35/89/5
f 50/91/4 51/108/4 55/92/4
f 29/94/1 55/92/1 91/95/1
f 26/97/6 45/59/6 75/98/6
f 28/100/6 48/67/6 82/101/6
f 28/100/6 43/104/6 49/69/6
f 11/103/6 46/58/6 49/69/6
f 29/105/6 47/71/6 44/60/6
f 26/97/6 50/106/6 44/60/6
f 87/107/6 91/95/6 55/92/6
f 90/109/6 54/117/6 52/110/6
f 28/112/5 56/168/5 52/110/5
f 11/114/3 54/117/3 90/109/3
f 26/116/4 53/159/4 51/108/4
f 43/113/5 52/110/5 54/117/5
f 61/31/6 64/144/6 99/119/6
f 59/121/6 60/188/6 96/122/6
f 46/124/5 58/148/5 57/34/5
f 5/126/5 62/138/5 63/127/5
f 19/129/4 60/188/4 59/121/4
f 45/131/1 59/121/1 93/123/1
f 82/133/3 48/206/3 63/127/3
f 25/135/1 61/31/1 97/120/1
f 80/137/1 98/155/1 62/138/1
f 79/140/6 81/157/6 82/141/6
f 81/143/3 99/119/3 64/144/3
f 100/146/4 98/207/4 80/142/4
f 76/147/1 94/153/1 58/148/1
f 78/150/6 77/191/6 76/151/6
f 94/153/6 95/35/6 57/34/6
f 75/152/5 93/208/5 96/154/5
f 98/155/6 100/134/6 63/127/6
f 79/140/5 97/209/5 99/156/5
f 83/158/3 89/161/3 53/159/3
f 84/115/3 90/109/3 89/161/3
f 53/159/6 89/161/6 87/107/6
f 89/161/6 90/109/6 88/111/6
f 52/110/6 56/168/6 92/162/6
f 92/162/6 91/95/6 87/107/6
f 29/105/6 85/164/6 81/163/6
f 86/102/6 82/101/6 81/163/6
f 11/103/6 84/166/6 76/165/6
f 84/166/6 83/99/6 75/98/6
f 86/167/1 92/162/1 56/168/1
f 85/96/1 91/95/1 92/162/1
f 25/70/6 79/171/6 69/170/6
f 80/66/6 70/65/6 69/170/6
f 1/56/6 77/174/6 73/172/6
f 77/174/6 78/63/6 74/62/6
f 27/175/1 73/178/1 66/176/1
f 74/40/1 65/39/1 66/176/1
f 72/179/2 68/182/2 7/180/2
f 71/28/2 67/38/2 68/182/2
f 7/183/3 68/186/3 70/184/3
f 67/37/3 69/36/3 70/184/3
f 78/187/3 96/122/3 60/188/3
f 95/190/4 94/210/4 76/151/4
f 66/192/2 72/179/2 9/181/2
f 65/29/2 71/28/2 72/179/2
