# Blender v2.79 (sub 0) OBJ File: 'Krzeslo.blend'
# www.blender.org
mtllib Krzeslo.mtl
o Cube
v -0.387521 0.780511 0.315643
v -0.387521 0.884990 0.315643
v -0.387521 0.780511 -0.315643
v -0.387521 0.884990 -0.315643
v 0.387521 0.780511 0.315643
v 0.387521 0.884990 0.315643
v 0.387521 0.780511 -0.315643
v 0.387521 0.884990 -0.315643
v 0.295615 0.780511 -0.315643
v -0.295615 0.780511 -0.315643
v -0.295615 0.884990 -0.315643
v 0.295615 0.884990 -0.315643
v -0.295615 0.780511 0.315643
v 0.295615 0.780511 0.315643
v 0.295615 0.884990 0.315643
v -0.295615 0.884990 0.315643
v -0.387521 0.780511 -0.237524
v -0.387521 0.780511 0.237524
v -0.387521 0.884990 0.237524
v -0.387521 0.884990 -0.237524
v 0.387521 0.780511 0.237524
v 0.387521 0.780511 -0.237524
v 0.387521 0.884990 -0.237524
v 0.387521 0.884990 0.237524
v 0.277092 0.904508 -0.219001
v 0.277092 0.904508 0.219001
v -0.277092 0.904508 -0.219001
v -0.277092 0.904508 0.219001
v -0.295615 0.780511 -0.237524
v -0.295615 0.780511 0.237524
v 0.295615 0.780511 -0.237524
v 0.295615 0.780511 0.237524
v -0.387521 -0.000000 0.237524
v -0.387521 -0.000000 0.315643
v -0.295615 -0.000000 -0.315643
v -0.387521 -0.000000 -0.315643
v 0.466380 0.007476 -0.237524
v 0.466380 0.007476 -0.315643
v 0.375191 -0.003975 0.315643
v 0.466380 0.007476 0.315643
v 0.375191 -0.003975 -0.315643
v -0.295615 -0.000000 0.315643
v -0.295615 -0.000000 0.237524
v 0.375191 -0.003975 0.237524
v -0.387521 -0.000000 -0.237524
v 0.466380 0.007476 0.237524
v -0.295615 -0.000000 -0.237524
v 0.375191 -0.003975 -0.237524
v -0.474725 1.895021 -0.315643
v -0.384519 1.912616 0.315643
v -0.474725 1.895021 0.315643
v -0.384519 1.912616 -0.315643
v -0.383923 1.909341 -0.213222
v -0.474725 1.895021 -0.237524
v -0.383923 1.909341 0.213222
v -0.474725 1.895021 0.237524
v -0.296465 1.429141 -0.213222
v -0.386671 1.411546 0.237524
v -0.296465 1.429141 0.213222
v -0.296465 1.429141 -0.315643
v -0.386671 1.411546 0.315643
v -0.296465 1.429141 0.315643
v -0.386671 1.411546 -0.315643
v -0.386671 1.411546 -0.237524
v 0.319200 0.441893 -0.315643
v 0.319200 0.441893 -0.237524
v 0.410389 0.453344 -0.237524
v 0.410389 0.453344 -0.315643
v 0.319200 0.441893 0.237524
v 0.319200 0.441893 0.315643
v 0.410389 0.453344 0.315643
v 0.410389 0.453344 0.237524
v 0.295615 0.884990 -0.237524
v 0.295615 0.884990 0.237524
v -0.295620 0.888266 -0.213222
v -0.295620 0.888266 0.213222
v -0.295615 0.884990 -0.237524
v -0.295615 0.884990 0.237524
v -0.384519 1.912616 0.237524
v -0.296465 1.429141 0.237524
v -0.296465 1.429141 -0.237524
v -0.384519 1.912616 -0.237524
v -0.270125 1.431560 -0.213222
v -0.270125 1.431560 0.213222
v -0.357582 1.911760 0.213222
v -0.357582 1.911760 -0.213222
vt 0.171297 0.154219
vt 0.128721 0.116362
vt 0.171293 0.116362
vt 0.283198 0.085666
vt 0.314735 0.013052
vt 0.283198 0.013052
vt 0.371974 0.061887
vt 0.347614 0.026513
vt 0.371974 0.026513
vt 0.078161 0.083309
vt 0.046755 0.012461
vt 0.078160 0.012461
vt 0.928266 0.950014
vt 0.943990 0.464611
vt 0.943990 0.950047
vt 0.436405 0.649604
vt 0.476574 0.527428
vt 0.465228 0.649617
vt 0.927756 0.055541
vt 0.973611 0.023551
vt 0.973611 0.055541
vt 0.632765 0.055541
vt 0.927756 0.023551
vt 0.871955 0.752325
vt 0.885196 0.450302
vt 0.885214 0.752324
vt 0.839635 0.093956
vt 0.868668 0.212359
vt 0.839635 0.212359
vt 0.311597 0.083309
vt 0.280192 0.012461
vt 0.311597 0.012461
vt 0.280192 0.083309
vt 0.048786 0.085666
vt 0.080323 0.013052
vt 0.048786 0.013052
vt 0.080323 0.085666
vt 0.965639 0.263033
vt 0.865339 0.270174
vt 0.865339 0.263033
vt 0.663078 0.093956
vt 0.663078 0.212359
vt 0.896146 0.950061
vt 0.911870 0.464658
vt 0.911870 0.950094
vt 0.839635 0.230764
vt 0.663078 0.230764
vt 0.632765 0.282062
vt 0.927755 0.250073
vt 0.927755 0.282062
vt 0.362325 0.839549
vt 0.108637 0.947589
vt 0.108636 0.839549
vt 0.973611 0.250073
vt 0.973611 0.282062
vt 0.077872 0.452304
vt 0.016962 0.768234
vt 0.047046 0.440372
vt 0.128634 0.345029
vt 0.128723 0.154219
vt 0.900878 0.744667
vt 0.914154 0.442681
vt 0.914134 0.744667
vt 0.663078 0.075551
vt 0.544466 0.061887
vt 0.520106 0.026513
vt 0.544466 0.026513
vt 0.520106 0.061887
vt 0.472747 0.154219
vt 0.430174 0.116362
vt 0.472746 0.116362
vt 0.430175 0.154219
vt 0.930630 0.573501
vt 0.879284 0.590843
vt 0.879284 0.573501
vt 0.917149 0.609941
vt 0.879284 0.627284
vt 0.879284 0.609941
vt 0.917149 0.628161
vt 0.879284 0.645504
vt 0.879284 0.628161
vt 0.930630 0.591721
vt 0.879284 0.609064
vt 0.879284 0.591721
vt 0.959714 0.950061
vt 0.975439 0.464658
vt 0.975439 0.950094
vt 0.959415 0.744667
vt 0.972690 0.442681
vt 0.972671 0.744667
vt 0.912541 0.950000
vt 0.928266 0.464577
vt 0.848973 0.950000
vt 0.864698 0.464577
vt 0.864698 0.950014
vt 0.856288 0.744662
vt 0.871977 0.450302
vt 0.930491 0.752325
vt 0.943731 0.450302
vt 0.943750 0.752324
vt 0.959714 0.464624
vt 0.914825 0.744662
vt 0.930513 0.450302
vt 0.880422 0.464611
vt 0.880422 0.950047
vt 0.959440 0.442681
vt 0.896146 0.464624
vt 0.900904 0.442681
vt 0.132026 0.648261
vt 0.156598 0.527501
vt 0.160514 0.648252
vt 0.472903 0.345018
vt 0.438912 0.520066
vt 0.430351 0.345024
vt 0.080028 0.463857
vt 0.018853 0.787661
vt 0.049801 0.799888
vt 0.160794 0.520199
vt 0.442967 0.527438
vt 0.120166 0.520202
vt 0.479721 0.520077
vt 0.432341 0.779565
vt 0.460401 0.779573
vt 0.049074 0.451627
vt 0.133804 0.776700
vt 0.161440 0.776697
vt 0.171201 0.345038
vt 0.046755 0.083309
vt 0.540774 0.973386
vt 0.761640 0.971103
vt 0.761640 0.973386
vt 0.789574 0.713489
vt 0.758453 0.454067
vt 0.791370 0.425990
vt 0.900847 0.974705
vt 0.856389 0.974708
vt 0.871988 0.974627
vt 0.914123 0.974705
vt 0.885248 0.974626
vt 0.959384 0.974705
vt 0.914926 0.974708
vt 0.930525 0.974627
vt 0.943785 0.974627
vt 0.972660 0.974705
vt 0.041815 0.834980
vt 0.895932 0.518260
vt 0.892319 0.529245
vt 0.892319 0.515794
vt 0.370805 0.803543
vt 0.362325 0.947589
vt 0.100157 0.983594
vt 0.719301 0.257983
vt 0.850549 0.254170
vt 0.843473 0.257983
vt 0.423897 0.528899
vt 0.412255 0.649591
vt 0.175413 0.528946
vt 0.407612 0.777328
vt 0.185935 0.774491
vt 0.184383 0.648244
vt 0.757345 0.716467
vt 0.540774 0.971103
vt 0.544225 0.716453
vt 0.545239 0.454060
vt 0.508961 0.968241
vt 0.512002 0.713474
vt 0.793441 0.968239
vt 0.717619 0.277110
vt 0.892319 0.504448
vt 0.895932 0.501982
vt 0.895932 0.515433
vt 0.314735 0.085666
vt 0.347614 0.061887
vt 0.632765 0.023551
vt 0.868668 0.093956
vt 0.965639 0.270174
vt 0.632765 0.250073
vt 0.047781 0.780163
vt 0.839635 0.075551
vt 0.930630 0.590843
vt 0.917149 0.627284
vt 0.917149 0.645504
vt 0.930630 0.609064
vt 0.912541 0.464564
vt 0.848973 0.464564
vt 0.856289 0.442691
vt 0.914825 0.442691
vt 0.123295 0.527493
vt 0.041815 0.952157
vt 0.100157 0.803543
vt 0.370805 0.983594
vt 0.712225 0.254170
vt 0.512552 0.425979
vt 0.845155 0.277110
vn -1.0000 0.0008 0.0000
vn -0.7071 0.0000 -0.7071
vn -0.9045 -0.3015 0.3015
vn 0.0000 0.7071 -0.7071
vn 0.6986 0.0244 -0.7150
vn -0.3025 -0.3243 -0.8963
vn 0.7071 0.7071 0.0000
vn 0.6986 0.0244 0.7150
vn 0.9062 -0.2812 -0.3157
vn 0.3015 0.3020 0.9043
vn -0.7071 0.0000 0.7071
vn 0.3015 -0.3015 0.9045
vn 0.5773 -0.5773 -0.5773
vn 0.3015 -0.9045 -0.3015
vn 0.9958 0.0907 0.0000
vn 0.4606 0.6747 0.5767
vn 0.7231 0.0659 0.6876
vn 0.1146 0.9868 0.1146
vn 0.5773 0.5773 0.5773
vn 0.6495 0.7334 0.2006
vn 0.0000 0.7071 0.7071
vn 0.6975 0.0681 0.7133
vn 0.6448 -0.5009 -0.5773
vn 0.6975 0.0681 -0.7133
vn -0.2964 -0.9119 -0.2839
vn -0.3025 -0.3243 0.8963
vn -0.7073 0.0005 -0.7069
vn 0.3015 -0.3015 -0.9045
vn 0.3015 0.3020 -0.9043
vn 0.3015 -0.9045 0.3015
vn -0.2964 -0.9119 0.2839
vn -0.5773 -0.5773 0.5773
vn -0.9045 -0.3015 -0.3015
vn 0.1146 0.9868 -0.1146
vn 0.2523 0.5501 -0.7961
vn 0.3104 0.8985 0.3104
vn 0.3104 0.8985 -0.3104
vn 0.5773 0.5773 -0.5773
vn -0.6739 0.4601 0.5780
vn -0.6827 -0.0611 0.7281
vn -0.6827 -0.0611 -0.7281
vn -0.7099 -0.0692 -0.7009
vn -0.5009 -0.6448 0.5773
vn -0.7099 -0.0692 0.7009
vn 0.9062 -0.2812 0.3157
vn -0.7073 0.0005 0.7069
vn -0.5009 -0.6448 -0.5773
vn -0.5773 -0.5773 -0.5773
vn 0.5773 -0.5773 0.5773
vn 0.6448 -0.5009 0.5773
vn 0.7231 0.0659 -0.6876
vn 0.5638 0.8259 0.0000
vn -0.8259 0.5638 0.0000
vn -0.9960 -0.0891 0.0000
vn -0.6739 0.4601 -0.5780
vn 0.4606 0.6747 -0.5767
vn 0.6495 0.7334 -0.2006
vn 0.8462 0.4537 0.2792
vn 0.4917 0.6475 -0.5821
vn 0.8462 0.4537 -0.2792
vn 0.6814 0.0662 -0.7289
vn 0.9769 -0.0626 -0.2041
vn 0.2523 0.5501 0.7961
vn 0.9769 -0.0626 0.2041
vn 0.6814 0.0662 0.7289
vn 0.7259 0.0642 -0.6847
vn 0.4917 0.6475 0.5821
vn 0.7259 0.0642 0.6847
usemtl None
s 1
f 20/1/1 3/2/2 17/3/3
f 12/4/4 7/5/5 9/6/6
f 24/7/7 5/8/8 21/9/9
f 16/10/10 1/11/11 13/12/12
f 13/13/12 43/14/13 30/15/14
f 80/16/15 50/17/16 62/18/17
f 74/19/18 6/20/19 24/21/7
f 78/22/20 15/23/21 74/19/18
f 67/24/22 38/25/23 68/26/24
f 32/27/25 13/28/12 30/29/14
f 6/30/19 14/31/26 5/32/8
f 15/33/21 13/12/12 14/31/26
f 4/34/27 10/35/28 3/36/2
f 11/37/29 9/6/6 10/35/28
f 9/38/6 29/39/30 10/40/28
f 31/41/31 30/29/14 29/42/30
f 3/43/2 45/44/32 17/45/3
f 29/42/30 18/46/33 17/47/3
f 11/48/29 73/49/34 12/50/4
f 27/51/35 26/52/36 25/53/37
f 12/50/4 23/54/7 8/55/38
f 73/49/34 24/21/7 23/54/7
f 62/56/17 51/57/39 61/58/40
f 20/1/1 63/59/41 4/60/27
f 65/61/42 48/62/43 66/63/44
f 22/64/45 32/27/25 31/41/31
f 8/65/38 22/66/45 7/67/5
f 23/68/7 21/9/9 22/66/45
f 2/69/46 18/70/33 1/71/11
f 19/72/1 17/3/3 18/70/33
f 46/73/23 39/74/43 44/75/47
f 43/76/13 34/77/32 33/78/48
f 35/79/13 45/80/32 36/81/48
f 38/82/23 48/83/43 41/84/47
f 18/85/33 34/86/32 1/87/11
f 69/88/42 39/89/43 70/90/44
f 1/91/11 42/92/49 13/13/12
f 17/93/3 47/94/49 29/95/30
f 66/96/44 37/97/50 67/24/22
f 71/98/22 46/99/23 72/100/24
f 30/15/14 33/101/48 18/85/33
f 70/102/44 40/103/50 71/98/22
f 29/95/30 35/104/13 10/105/28
f 69/88/42 46/99/23 44/106/47
f 10/105/28 36/107/48 3/43/2
f 65/61/42 38/25/23 41/108/47
f 60/109/51 82/110/52 81/111/15
f 61/112/40 56/113/53 58/114/54
f 60/115/51 49/116/55 52/117/56
f 54/118/53 79/119/52 82/110/52
f 82/110/52 49/120/55 54/118/53
f 79/119/52 51/121/39 50/17/16
f 78/122/20 62/18/17 16/123/10
f 11/37/29 63/124/41 60/115/51
f 11/125/29 81/111/15 77/126/57
f 19/72/1 64/127/54 20/1/1
f 16/10/10 61/58/40 2/128/46
f 64/127/54 49/120/55 63/59/41
f 55/129/58 86/130/59 53/131/60
f 58/114/54 54/118/53 64/127/54
f 57/132/61 27/133/35 75/134/62
f 2/69/46 58/114/54 19/72/1
f 9/135/6 68/26/24 65/61/42
f 31/136/31 67/24/22 22/137/45
f 9/135/6 66/63/44 31/138/31
f 22/137/45 68/26/24 7/139/5
f 32/140/25 72/100/24 69/88/42
f 14/141/26 71/98/22 5/142/8
f 5/142/8 72/100/24 21/143/9
f 32/140/25 70/90/44 14/144/26
f 26/52/36 73/145/34 25/53/37
f 75/146/62 27/147/35 77/148/57
f 25/53/37 77/149/57 27/51/35
f 28/150/63 74/151/18 26/52/36
f 76/152/64 77/153/57 75/154/62
f 55/155/58 80/16/15 59/156/65
f 53/157/60 81/111/15 82/110/52
f 53/157/60 79/119/52 55/155/58
f 76/158/64 80/16/15 78/122/20
f 75/159/62 81/111/15 57/160/61
f 83/161/66 85/162/67 84/163/68
f 27/133/35 84/163/68 28/164/63
f 55/165/58 84/163/68 85/162/67
f 59/166/65 28/164/63 84/163/68
f 53/167/60 83/161/66 57/132/61
f 75/154/62 28/168/63 76/152/64
f 76/169/64 78/170/20 28/171/63
f 20/1/1 4/60/27 3/2/2
f 12/4/4 8/172/38 7/5/5
f 24/7/7 6/173/19 5/8/8
f 16/10/10 2/128/46 1/11/11
f 13/13/12 42/92/49 43/14/13
f 80/16/15 79/119/52 50/17/16
f 74/19/18 15/23/21 6/20/19
f 78/22/20 16/174/10 15/23/21
f 67/24/22 37/97/50 38/25/23
f 32/27/25 14/175/26 13/28/12
f 6/30/19 15/33/21 14/31/26
f 15/33/21 16/10/10 13/12/12
f 4/34/27 11/37/29 10/35/28
f 11/37/29 12/4/4 9/6/6
f 9/38/6 31/176/31 29/39/30
f 31/41/31 32/27/25 30/29/14
f 3/43/2 36/107/48 45/44/32
f 29/42/30 30/29/14 18/46/33
f 11/48/29 77/177/57 73/49/34
f 27/51/35 28/150/63 26/52/36
f 12/50/4 73/49/34 23/54/7
f 73/49/34 74/19/18 24/21/7
f 62/56/17 50/178/16 51/57/39
f 20/1/1 64/127/54 63/59/41
f 65/61/42 41/108/47 48/62/43
f 22/64/45 21/179/9 32/27/25
f 8/65/38 23/68/7 22/66/45
f 23/68/7 24/7/7 21/9/9
f 2/69/46 19/72/1 18/70/33
f 19/72/1 20/1/1 17/3/3
f 46/73/23 40/180/50 39/74/43
f 43/76/13 42/181/49 34/77/32
f 35/79/13 47/182/49 45/80/32
f 38/82/23 37/183/50 48/83/43
f 18/85/33 33/101/48 34/86/32
f 69/88/42 44/106/47 39/89/43
f 1/91/11 34/184/32 42/92/49
f 17/93/3 45/185/32 47/94/49
f 66/96/44 48/186/43 37/97/50
f 71/98/22 40/103/50 46/99/23
f 30/15/14 43/14/13 33/101/48
f 70/102/44 39/187/43 40/103/50
f 29/95/30 47/94/49 35/104/13
f 69/88/42 72/100/24 46/99/23
f 10/105/28 35/104/13 36/107/48
f 65/61/42 68/26/24 38/25/23
f 60/109/51 52/188/56 82/110/52
f 61/112/40 51/121/39 56/113/53
f 60/115/51 63/124/41 49/116/55
f 54/118/53 56/113/53 79/119/52
f 82/110/52 52/188/56 49/120/55
f 79/119/52 56/113/53 51/121/39
f 78/122/20 80/16/15 62/18/17
f 11/37/29 4/34/27 63/124/41
f 11/125/29 60/109/51 81/111/15
f 19/72/1 58/114/54 64/127/54
f 16/10/10 62/56/17 61/58/40
f 64/127/54 54/118/53 49/120/55
f 55/129/58 85/162/67 86/130/59
f 58/114/54 56/113/53 54/118/53
f 57/132/61 83/161/66 27/133/35
f 2/69/46 61/112/40 58/114/54
f 9/135/6 7/139/5 68/26/24
f 31/136/31 66/96/44 67/24/22
f 9/135/6 65/61/42 66/63/44
f 22/137/45 67/24/22 68/26/24
f 32/140/25 21/143/9 72/100/24
f 14/141/26 70/102/44 71/98/22
f 5/142/8 71/98/22 72/100/24
f 32/140/25 69/88/42 70/90/44
f 26/52/36 74/189/18 73/145/34
f 25/53/37 73/190/34 77/149/57
f 28/150/63 78/191/20 74/151/18
f 76/152/64 78/192/20 77/153/57
f 55/155/58 79/119/52 80/16/15
f 53/157/60 57/160/61 81/111/15
f 53/157/60 82/110/52 79/119/52
f 76/158/64 59/156/65 80/16/15
f 75/159/62 77/126/57 81/111/15
f 83/161/66 86/130/59 85/162/67
f 27/133/35 83/161/66 84/163/68
f 55/165/58 59/166/65 84/163/68
f 59/166/65 76/193/64 28/164/63
f 53/167/60 86/130/59 83/161/66
f 75/154/62 27/194/35 28/168/63
