# Blender v2.79 (sub 0) OBJ File: 'DOM.blend'
# www.blender.org
mtllib DOM.mtl
o Plane
v 6.500000 1.987338 3.000000
v 9.000000 1.987338 6.000000
v 11.000000 1.987338 6.000000
v 12.500000 1.987338 2.000000
v 12.500000 1.987338 0.000000
v 12.500000 1.987338 -4.000000
v 11.000000 1.987338 -10.500000
v 6.500000 1.987338 -5.000000
v 21.500000 1.987338 -16.500000
v 21.500000 1.987338 5.500000
v 12.500000 1.987338 5.500000
v 12.500000 1.987338 -1.750000
v 12.500000 1.987338 -2.250000
v 12.500000 1.987338 -11.000000
v 1.500000 1.987338 -16.500000
v 1.500000 1.987338 -11.000000
v 1.500000 1.987338 -10.500000
v -5.750000 1.987338 -16.501635
v -5.750000 1.987338 -8.250000
v -5.750000 1.987338 -8.500000
v -5.750000 1.987338 3.000000
v 6.000000 1.987338 -8.000000
v -5.750000 1.987338 -8.000000
v 13.000000 1.987338 -4.000000
v 13.000000 1.987338 -6.000000
v 11.000000 1.987338 -11.000000
v 11.000000 1.987338 5.500000
v 9.000000 1.987338 5.500000
v 6.496148 1.987338 5.503444
v 12.996148 1.987338 -1.746556
v 12.996148 1.987338 -2.246556
v 12.496147 1.987338 -10.496557
v 12.496147 1.987338 -5.996556
v 0.996148 1.987338 -10.496557
v 0.996148 1.987338 -16.496557
v 6.496148 1.987338 -2.996557
v 6.496148 1.987338 -7.996556
v 5.996149 1.987338 -8.246556
v 6.496148 1.987338 -8.246556
v 12.496147 1.987338 -16.496557
v 0.996148 1.987338 -10.996556
v 12.996148 1.987338 -16.496557
v 21.496147 1.987338 -2.246556
v 6.496148 1.987338 3.503444
v 12.996148 1.987338 5.503444
v 12.996148 1.987338 -10.996556
v 12.996148 1.987338 2.003443
v 12.996148 1.987338 0.003444
v 21.496147 1.987338 -1.746556
v 12.996148 1.987338 -10.496557
v 8.996147 1.987338 -10.496557
v 5.996149 1.987338 3.003444
v 5.996149 1.987338 -4.996556
v 5.996149 1.987338 -2.996557
v 8.996147 1.987338 -10.996556
v 9.000000 5.987339 6.000000
v 11.000000 5.987339 6.000000
v 12.500000 5.987339 5.500000
v 12.500000 5.987339 2.000000
v 21.500000 5.987339 5.500000
v 12.500000 5.987339 0.000000
v 12.500000 5.987339 -4.000000
v 11.000000 5.987339 -11.000000
v 12.500000 5.987339 -11.000000
v 1.500000 5.987339 -11.000000
v 1.500000 5.987339 -16.500000
v -5.750000 5.987339 -8.500000
v -5.750000 5.987339 -8.250000
v -5.750000 5.987339 -16.501635
v -5.750000 5.987339 -8.000000
v -5.750000 5.987339 3.000000
v 6.000000 5.987339 -8.000000
v 13.000000 5.987339 -4.000000
v 11.000000 5.987339 -10.500000
v 11.000000 5.987339 5.500000
v 9.000000 5.987339 5.500000
v 12.996148 5.987339 -1.746556
v 12.996148 5.987339 -2.246556
v 12.496147 5.987339 -10.496557
v 12.496147 5.987339 -5.996556
v 0.996148 5.987339 -16.496557
v 5.996149 5.987339 -8.246556
v 6.496148 5.987339 -8.246556
v 0.996148 5.987339 -10.996556
v 6.496148 5.987339 3.503444
v 6.496148 5.987339 5.503445
v 12.496147 5.987339 -16.496557
v 12.996148 5.987339 -16.496557
v 12.996148 5.987339 5.503445
v 12.996148 5.987339 -10.996556
v 12.996148 5.987339 2.003443
v 12.996148 5.987339 0.003444
v 21.496147 5.987339 -1.746556
v 21.496147 5.987339 -2.246556
v 0.996148 5.987339 -10.496557
v 12.996148 5.987339 -10.496557
v 6.496148 5.987339 -7.996556
v 5.996149 5.987339 3.003444
v 5.996149 5.987339 -2.996556
v 6.496148 5.987339 -2.996556
v 8.996147 5.987339 -10.496557
v 8.996147 5.987339 -10.996556
v 1.500000 5.987339 -10.500000
v 6.500000 5.987339 3.000000
v 6.500000 5.987339 -5.000000
v 21.500000 5.987339 -16.500000
v 5.996149 5.987339 -4.996556
v 13.000000 5.987339 -6.000000
v 12.500000 6.987339 5.500000
v 12.500000 6.987338 2.000000
v 21.500000 6.987339 5.500000
v 12.500000 6.987338 0.000000
v 12.500000 6.987338 -4.000000
v 11.000000 6.987338 -11.000000
v 12.500000 6.987338 -11.000000
v 1.500000 6.987338 -11.000000
v 1.500000 6.987338 -16.500000
v -5.750000 6.987339 -8.500000
v -5.750000 6.987339 -8.250000
v -5.750000 6.987338 -16.501635
v -5.750000 6.987339 -8.000000
v -5.750000 6.987338 3.000000
v 6.000000 6.987339 -8.000000
v 13.000000 6.987338 -4.000000
v 11.000000 6.987338 -10.500000
v 11.000000 6.987339 5.500000
v 9.000000 6.987339 5.500000
v 12.996148 6.987338 -1.746556
v 12.996148 6.987338 -2.246556
v 12.496147 6.987338 -10.496557
v 12.496147 6.987339 -5.996556
v 0.996148 6.987338 -16.496557
v 5.996149 6.987339 -8.246556
v 6.496148 6.987339 -8.246556
v 0.996148 6.987338 -10.996556
v 6.496148 6.987338 3.503444
v 6.496148 6.987339 5.503445
v 12.496147 6.987338 -16.496557
v 12.996148 6.987338 -16.496557
v 12.996148 6.987339 5.503445
v 12.996148 6.987338 -10.996556
v 12.996148 6.987338 2.003443
v 12.996148 6.987338 0.003444
v 21.496147 6.987338 -1.746556
v 21.496147 6.987338 -2.246556
v 0.996148 6.987338 -10.496557
v 12.996148 6.987338 -10.496557
v 6.496148 6.987339 -7.996556
v 5.996149 6.987338 3.003444
v 5.996149 6.987338 -2.996556
v 6.496148 6.987338 -2.996556
v 8.996147 6.987338 -10.496557
v 8.996147 6.987338 -10.996556
v 1.500000 6.987338 -10.500000
v 6.500000 6.987338 3.000000
v 6.500000 6.987338 -5.000000
v 21.500000 6.987338 -16.500000
v 5.996149 6.987338 -4.996556
v 13.000000 6.987339 -6.000000
v 0.996148 1.987338 -8.248123
v 0.996148 6.987339 -8.247910
v 0.996148 5.987339 -8.247953
vt 0.145264 0.061035
vt 0.126953 0.097656
vt 0.126953 0.061035
vt 0.150146 0.207520
vt 0.168457 0.170898
vt 0.168457 0.207520
vt 0.413818 0.764977
vt 0.537598 0.666016
vt 0.537598 0.812470
vt 0.743896 0.182275
vt 0.743896 0.137598
vt 0.905029 0.092187
vt 0.057373 0.061035
vt 0.075684 0.097656
vt 0.057373 0.097656
vt 0.129403 0.469884
vt 0.129403 0.420324
vt 0.285165 0.420324
vt 0.785645 0.705543
vt 0.785645 0.668808
vt 0.895264 0.686279
vt 0.271484 0.796143
vt 0.298340 0.796143
vt 0.298340 0.897217
vt 0.413818 0.816895
vt 0.413818 0.775879
vt 0.508789 0.196533
vt 0.508789 0.242188
vt 0.294189 0.316406
vt 0.080566 0.061035
vt 0.098877 0.097656
vt 0.080566 0.097656
vt 0.103760 0.097656
vt 0.122070 0.061035
vt 0.122070 0.097656
vt 0.080566 0.280762
vt 0.098877 0.207520
vt 0.098877 0.280762
vt 0.895264 0.631591
vt 0.969971 0.626709
vt 0.969971 0.631592
vt 0.057373 0.280762
vt 0.075684 0.207520
vt 0.075684 0.280762
vt 0.150146 0.170898
vt 0.168457 0.097656
vt 0.743897 0.261865
vt 0.664062 0.253076
vt 0.743897 0.253076
vt 0.508789 0.316406
vt 0.294189 0.389648
vt 0.340576 0.765515
vt 0.285165 0.347067
vt 0.096191 0.796143
vt 0.234619 0.722656
vt 0.234619 0.796143
vt 0.221191 0.115479
vt 0.294189 0.115479
vt 0.743896 0.092187
vt 0.905029 0.021387
vt 0.895264 0.880127
vt 0.850098 0.953936
vt 0.850098 0.880127
vt 0.664062 0.182275
vt 0.150146 0.280762
vt 0.977539 0.358057
vt 0.905029 0.358241
vt 0.664062 0.092188
vt 0.743964 0.430805
vt 0.743896 0.358057
vt 0.610352 0.812525
vt 0.413818 0.666016
vt 0.537598 0.592773
vt 0.537598 0.816895
vt 0.610352 0.816895
vt 0.285165 0.553136
vt 0.129403 0.626380
vt 0.129403 0.553136
vt 0.096191 0.970459
vt 0.096191 0.897217
vt 0.022949 0.796143
vt 0.043222 0.509191
vt 0.129403 0.509191
vt 0.598389 0.316406
vt 0.298340 0.722656
vt 0.043222 0.469884
vt 0.043222 0.420324
vt 0.150146 0.061035
vt 0.168457 0.061035
vt 0.712158 0.880127
vt 0.693520 0.816212
vt 0.712158 0.816162
vt 0.813306 0.953986
vt 0.785645 0.972438
vt 0.785645 0.954025
vt 0.598389 0.115479
vt 0.620605 0.196533
vt 0.598389 0.196533
vt 0.674448 0.541948
vt 0.536411 0.560293
vt 0.536427 0.541877
vt 0.987549 0.631592
vt 0.508789 0.389648
vt 0.294189 0.407762
vt 0.372314 0.796143
vt 0.390625 0.897217
vt 0.372314 0.897217
vt 0.202881 0.316406
vt 0.202881 0.115479
vt 0.664062 0.261865
vt 0.642578 0.253076
vt 0.358651 0.420324
vt 0.376962 0.553136
vt 0.358651 0.553136
vt 0.340576 0.775879
vt 0.322266 0.765083
vt 0.743896 0.021387
vt 0.905029 0.003564
vt 0.610352 0.666016
vt 0.628662 0.812538
vt 0.129403 0.347004
vt 0.285165 0.328748
vt 0.628662 0.816895
vt 0.895264 0.953884
vt 0.850098 0.972353
vt 0.022949 0.897217
vt 0.004639 0.796143
vt 0.271484 0.722656
vt 0.298340 0.704346
vt 0.285165 0.626380
vt 0.129403 0.644699
vt 0.234619 0.704346
vt 0.977539 0.092188
vt 0.995605 0.358057
vt 0.043222 0.553136
vt 0.024911 0.509191
vt 0.812500 0.493652
vt 0.848877 0.512021
vt 0.812500 0.512228
vt 0.905029 0.430805
vt 0.743964 0.448946
vt 0.096191 0.722656
vt 0.057373 0.170898
vt 0.508789 0.115479
vt 0.813305 0.880127
vt 0.785645 0.880127
vt 0.785645 0.815958
vt 0.145264 0.097656
vt 0.126953 0.170898
vt 0.122070 0.170898
vt 0.103760 0.170898
vt 0.080566 0.170898
vt 0.103760 0.280762
vt 0.122070 0.207520
vt 0.122070 0.280762
vt 0.674476 0.468293
vt 0.536525 0.468281
vt 0.785645 0.585938
vt 0.812500 0.585938
vt 0.527146 0.541867
vt 0.527255 0.468250
vt 0.619231 0.426818
vt 0.628415 0.353166
vt 0.628438 0.426818
vt 0.895264 0.723389
vt 0.969826 0.833740
vt 0.895264 0.833740
vt 0.969971 0.686279
vt 0.340576 0.666016
vt 0.895264 0.843018
vt 0.969971 0.843018
vt 0.969971 0.880127
vt 0.508789 0.042475
vt 0.527182 0.426864
vt 0.619208 0.353169
vt 0.712158 0.705764
vt 0.785645 0.737749
vt 0.126953 0.280762
vt 0.145264 0.207520
vt 0.145264 0.280762
vt 0.024911 0.469884
vt 0.024911 0.420324
vt 0.642578 0.137598
vt 0.664062 0.137598
vt 0.413818 0.592773
vt 0.537598 0.574463
vt 0.642578 0.182275
vt 0.987549 0.843018
vt 0.785645 0.512383
vt 0.712158 0.585938
vt 0.294189 0.042475
vt 0.508789 0.024211
vt 0.527130 0.560286
vt 0.527145 0.353213
vt 0.619200 0.334756
vt 0.628407 0.334752
vt 0.969971 0.723389
vt 0.987549 0.833740
vt 0.620605 0.242188
vt 0.620605 0.316406
vt 0.987549 0.686279
vt 0.712158 0.779361
vt 0.322266 0.666016
vt 0.987549 0.880127
vt 0.642578 0.092188
vt 0.598389 0.242187
vt 0.298340 0.970459
vt 0.096191 0.988770
vt 0.693204 0.705818
vt 0.712158 0.669022
vt 0.664062 0.358057
vt 0.642578 0.261865
vt 0.103760 0.207520
vt 0.145264 0.170898
vt 0.057373 0.207520
vt 0.075684 0.170898
vt 0.080566 0.207520
vt 0.098877 0.170898
vt 0.414017 0.890137
vt 0.537598 0.908447
vt 0.413818 0.908447
vt 0.537598 0.890137
vt 0.075684 0.061035
vt 0.785645 0.779151
vt 0.785645 0.746949
vt 0.895264 0.626709
vt 0.849247 0.585938
vt 0.098877 0.061035
vt 0.103760 0.061035
vt 0.150146 0.097656
vt 0.221191 0.316406
vt 0.168457 0.280762
vt 0.693689 0.880127
vt 0.813306 0.972400
vt 0.620605 0.115479
vt 0.674438 0.560361
vt 0.987549 0.626709
vt 0.508789 0.407825
vt 0.390625 0.796143
vt 0.376962 0.420324
vt 0.322266 0.775879
vt 0.743896 0.003564
vt 0.628662 0.666016
vt 0.129403 0.328685
vt 0.895264 0.972302
vt 0.004639 0.897217
vt 0.271484 0.704346
vt 0.285165 0.644699
vt 0.995605 0.092188
vt 0.024911 0.553136
vt 0.848877 0.493652
vt 0.905029 0.448946
vt 0.096191 0.704346
vt 0.693418 0.779414
vt 0.126953 0.207520
vt 0.413818 0.574463
vt 0.785645 0.493652
vt 0.693094 0.669077
vt 0.692838 0.585938
vt 0.294189 0.024211
vt 0.527137 0.334800
vt 0.987549 0.723389
vt 0.298340 0.988770
vt 0.642578 0.358057
vn 0.0000 1.0000 -0.0000
vn -1.0000 0.0000 0.0000
vn 1.0000 0.0000 0.0000
vn 0.0069 0.0000 -1.0000
vn 0.0000 0.0000 -1.0000
vn 0.0000 -0.0000 1.0000
vn -0.0004 0.0000 -1.0000
vn 0.0005 0.0000 -1.0000
vn -0.0014 0.0000 -1.0000
vn 1.0000 0.0000 -0.0009
vn 0.0068 -0.0000 1.0000
vn -1.0000 0.0000 -0.0003
vn 1.0000 0.0000 0.0022
vn 0.0004 0.0000 1.0000
vn -0.0008 0.0000 1.0000
vn -0.0003 0.0000 1.0000
vn -1.0000 0.0000 -0.0013
vn -0.0000 -1.0000 0.0000
vn -0.0005 0.0000 1.0000
vn -1.0000 0.0000 0.0007
vn -1.0000 0.0000 0.0005
vn -0.0017 0.0000 -1.0000
vn 0.0017 0.0000 1.0000
vn -0.0069 -0.0000 1.0000
vn -0.0023 0.0000 1.0000
vn 1.0000 0.0000 -0.0006
vn 1.0000 -0.0000 -0.0013
vn 1.0000 0.0000 0.0077
vn 0.0003 0.0000 -1.0000
vn 1.0000 0.0000 0.0019
vn -1.0000 0.0000 0.0019
usemtl None
s off
f 53/1/1 36/2/1 8/3/1
f 33/4/1 24/5/1 25/6/1
f 41/7/1 18/8/1 20/9/1
f 25/10/1 24/11/1 43/12/1
f 4/13/1 48/14/1 5/15/1
f 47/16/1 45/17/1 10/18/1
f 6/19/1 33/20/1 8/21/1
f 26/22/1 14/23/1 40/24/1
f 20/9/1 160/25/1 34/26/1
f 54/27/1 53/28/1 23/29/1
f 7/30/1 55/31/1 51/32/1
f 27/33/1 2/34/1 3/35/1
f 7/36/2 63/37/2 26/38/2
f 37/39/3 83/40/3 97/41/3
f 4/42/4 91/43/4 47/44/4
f 6/45/5 73/46/5 24/5/5
f 46/47/3 96/48/3 50/49/3
f 22/50/6 70/51/6 23/29/6
f 34/26/2 84/52/2 41/7/2
f 45/17/7 60/53/7 10/18/7
f 16/54/8 102/55/8 55/56/8
f 23/29/3 71/57/3 21/58/3
f 31/59/5 94/60/5 43/12/5
f 29/61/9 76/62/9 28/63/9
f 50/49/10 108/64/10 25/10/10
f 25/6/11 80/65/11 33/4/11
f 43/12/12 106/66/12 9/67/12
f 24/11/13 78/68/13 31/59/13
f 9/67/14 88/69/14 42/70/14
f 18/8/3 67/71/3 20/9/3
f 35/72/15 69/73/15 18/8/15
f 19/74/3 67/71/3 68/75/3
f 49/76/6 77/77/6 30/78/6
f 40/24/16 66/79/16 15/80/16
f 15/80/3 65/81/3 16/54/3
f 30/78/3 92/82/3 48/83/3
f 53/28/17 72/84/17 22/50/17
f 26/22/5 64/85/5 14/23/5
f 45/17/3 91/86/3 89/87/3
f 73/46/18 80/88/18 108/89/18
f 58/90/2 110/91/2 59/92/2
f 75/93/5 109/94/5 58/95/5
f 98/96/2 150/97/2 99/98/2
f 101/99/19 154/100/19 103/101/19
f 83/40/3 148/102/3 97/41/3
f 72/103/6 121/104/6 70/51/6
f 64/105/20 138/106/20 87/107/20
f 71/57/3 121/108/3 122/109/3
f 90/110/3 147/111/3 96/48/3
f 60/112/21 144/113/21 93/114/21
f 95/115/2 135/116/2 84/52/2
f 78/117/5 145/118/5 94/60/5
f 69/119/3 118/120/3 67/71/3
f 89/121/7 111/122/7 60/53/7
f 67/71/3 119/123/3 68/75/3
f 86/124/9 127/125/9 76/62/9
f 66/126/3 116/127/3 65/81/3
f 63/128/5 115/129/5 64/85/5
f 93/130/6 128/131/6 77/77/6
f 153/132/22 63/128/22 102/55/22
f 94/133/12 157/134/12 106/66/12
f 77/135/3 143/136/3 92/82/3
f 125/137/23 101/138/23 74/139/23
f 106/140/14 139/141/14 88/69/14
f 65/142/8 153/132/8 102/55/8
f 48/14/24 61/143/24 5/15/24
f 52/144/2 99/98/2 54/27/2
f 27/145/5 58/95/5 11/146/5
f 11/146/2 59/92/2 4/147/2
f 10/18/21 93/114/21 49/76/21
f 54/148/5 100/149/5 36/2/5
f 27/33/2 57/150/2 75/151/2
f 14/23/20 87/107/20 40/24/20
f 55/31/3 101/152/3 51/32/3
f 28/153/3 56/154/3 2/155/3
f 51/156/19 103/101/19 17/157/19
f 32/158/25 74/139/25 7/159/25
f 17/157/11 95/160/11 34/161/11
f 38/162/5 83/163/5 39/164/5
f 36/165/26 104/166/26 1/167/26
f 37/39/27 105/168/27 8/21/27
f 41/7/2 81/169/2 35/72/2
f 44/170/28 104/166/28 85/171/28
f 44/170/3 86/172/3 29/61/3
f 21/58/29 98/173/29 52/144/29
f 160/174/29 82/175/29 38/162/29
f 62/176/2 6/19/2 13/177/2
f 8/178/11 107/179/11 53/180/11
f 42/70/3 90/110/3 46/47/3
f 89/87/3 142/181/3 140/182/3
f 108/64/3 124/183/3 73/184/3
f 81/185/15 120/186/15 69/73/15
f 108/64/10 147/111/10 159/187/10
f 104/166/28 136/188/28 85/171/28
f 79/189/25 125/137/25 74/139/25
f 79/190/2 32/158/2 33/20/2
f 71/191/29 149/192/29 98/173/29
f 103/101/11 146/193/11 95/160/11
f 162/194/29 133/195/29 82/175/29
f 82/175/5 134/196/5 83/163/5
f 100/197/26 155/198/26 104/166/26
f 127/125/5 75/93/5 76/62/5
f 72/84/17 158/199/17 123/200/17
f 97/41/27 156/201/27 105/168/27
f 110/91/2 61/202/2 59/92/2
f 84/52/2 132/203/2 81/169/2
f 143/136/3 91/86/3 92/82/3
f 86/172/3 136/188/3 137/204/3
f 156/201/30 100/197/30 105/168/30
f 73/184/13 129/205/13 78/68/13
f 150/97/2 107/206/2 99/98/2
f 87/207/16 117/208/16 66/79/16
f 113/209/31 80/210/31 62/176/31
f 88/211/3 141/212/3 90/110/3
f 57/150/18 76/213/18 75/151/18
f 107/179/18 100/149/18 99/214/18
f 59/215/18 92/216/18 91/43/18
f 74/217/18 102/218/18 63/37/18
f 162/219/29 119/220/29 161/221/29
f 160/25/29 68/222/29 162/219/29
f 17/157/1 38/162/1 51/156/1
f 53/1/1 54/148/1 36/2/1
f 33/4/1 6/45/1 24/5/1
f 20/9/1 34/26/1 41/7/1
f 41/7/1 35/72/1 18/8/1
f 9/67/1 42/70/1 46/47/1
f 46/47/1 50/49/1 9/67/1
f 50/49/1 25/10/1 43/12/1
f 24/11/1 31/59/1 43/12/1
f 50/49/1 43/12/1 9/67/1
f 4/13/1 47/223/1 48/14/1
f 10/18/1 49/76/1 47/16/1
f 49/76/1 30/78/1 48/83/1
f 48/83/1 47/16/1 49/76/1
f 27/145/1 11/146/1 4/147/1
f 27/145/1 4/147/1 28/63/1
f 4/147/1 5/224/1 1/167/1
f 28/63/1 4/147/1 1/167/1
f 44/170/1 29/61/1 28/63/1
f 5/224/1 12/225/1 36/165/1
f 1/167/1 5/224/1 36/165/1
f 1/167/1 44/170/1 28/63/1
f 8/21/1 36/165/1 6/19/1
f 13/177/1 36/165/1 12/225/1
f 39/226/1 37/39/1 51/227/1
f 37/39/1 8/21/1 33/20/1
f 7/159/1 51/227/1 33/20/1
f 33/20/1 51/227/1 37/39/1
f 33/20/1 32/158/1 7/159/1
f 13/177/1 6/19/1 36/165/1
f 40/24/1 15/80/1 55/56/1
f 15/80/1 16/54/1 55/56/1
f 55/56/1 26/22/1 40/24/1
f 20/9/1 19/74/1 160/25/1
f 21/58/1 52/144/1 54/27/1
f 53/28/1 22/50/1 23/29/1
f 21/58/1 54/27/1 23/29/1
f 7/30/1 26/228/1 55/31/1
f 27/33/1 28/229/1 2/34/1
f 7/36/2 74/217/2 63/37/2
f 37/39/3 39/226/3 83/40/3
f 4/42/4 59/215/4 91/43/4
f 6/45/5 62/230/5 73/46/5
f 46/47/3 90/110/3 96/48/3
f 22/50/6 72/103/6 70/51/6
f 34/26/2 95/115/2 84/52/2
f 45/17/7 89/121/7 60/53/7
f 16/54/8 65/142/8 102/55/8
f 23/29/3 70/231/3 71/57/3
f 31/59/5 78/117/5 94/60/5
f 29/61/9 86/124/9 76/62/9
f 50/49/10 96/48/10 108/64/10
f 25/6/11 108/232/11 80/65/11
f 43/12/12 94/133/12 106/66/12
f 24/11/13 73/184/13 78/68/13
f 9/67/14 106/140/14 88/69/14
f 18/8/3 69/119/3 67/71/3
f 35/72/15 81/185/15 69/73/15
f 19/74/3 20/9/3 67/71/3
f 49/76/6 93/130/6 77/77/6
f 40/24/16 87/207/16 66/79/16
f 15/80/3 66/126/3 65/81/3
f 30/78/3 77/135/3 92/82/3
f 53/28/17 107/206/17 72/84/17
f 26/22/5 63/128/5 64/85/5
f 45/17/3 47/16/3 91/86/3
f 73/46/18 62/230/18 80/88/18
f 58/90/2 109/233/2 110/91/2
f 75/93/5 126/234/5 109/94/5
f 98/96/2 149/235/2 150/97/2
f 101/99/19 152/236/19 154/100/19
f 83/40/3 134/237/3 148/102/3
f 72/103/6 123/238/6 121/104/6
f 64/105/20 115/239/20 138/106/20
f 71/57/3 70/231/3 121/108/3
f 90/110/3 141/212/3 147/111/3
f 60/112/21 111/240/21 144/113/21
f 95/115/2 146/241/2 135/116/2
f 78/117/5 129/242/5 145/118/5
f 69/119/3 120/243/3 118/120/3
f 89/121/7 140/244/7 111/122/7
f 67/71/3 118/120/3 119/123/3
f 86/124/9 137/245/9 127/125/9
f 66/126/3 117/246/3 116/127/3
f 63/128/5 114/247/5 115/129/5
f 93/130/6 144/248/6 128/131/6
f 153/132/22 114/247/22 63/128/22
f 94/133/12 145/249/12 157/134/12
f 77/135/3 128/250/3 143/136/3
f 125/137/23 152/251/23 101/138/23
f 106/140/14 157/252/14 139/141/14
f 65/142/8 116/253/8 153/132/8
f 48/14/24 92/216/24 61/143/24
f 52/144/2 98/96/2 99/98/2
f 27/145/5 75/93/5 58/95/5
f 11/146/2 58/90/2 59/92/2
f 10/18/21 60/112/21 93/114/21
f 54/148/5 99/214/5 100/149/5
f 27/33/2 3/35/2 57/150/2
f 14/23/20 64/105/20 87/107/20
f 55/31/3 102/218/3 101/152/3
f 28/153/3 76/213/3 56/154/3
f 51/156/19 101/99/19 103/101/19
f 32/158/25 79/189/25 74/139/25
f 17/157/11 103/101/11 95/160/11
f 38/162/5 82/175/5 83/163/5
f 36/165/26 100/197/26 104/166/26
f 37/39/27 97/41/27 105/168/27
f 41/7/2 84/52/2 81/169/2
f 44/170/28 1/167/28 104/166/28
f 44/170/3 85/171/3 86/172/3
f 21/58/29 71/191/29 98/173/29
f 160/174/29 162/194/29 82/175/29
f 13/177/2 12/225/2 61/202/2
f 12/225/2 5/224/2 61/202/2
f 13/177/2 61/202/2 62/176/2
f 61/202/2 112/254/2 62/176/2
f 112/254/2 113/209/2 62/176/2
f 8/178/11 105/255/11 107/179/11
f 42/70/3 88/211/3 90/110/3
f 89/87/3 91/86/3 142/181/3
f 108/64/3 159/187/3 124/183/3
f 81/185/15 132/256/15 120/186/15
f 108/64/10 96/48/10 147/111/10
f 104/166/28 155/198/28 136/188/28
f 79/189/25 130/257/25 125/137/25
f 33/20/2 80/210/2 79/190/2
f 80/210/2 131/258/2 79/190/2
f 131/258/2 130/259/2 79/190/2
f 71/191/29 122/260/29 149/192/29
f 103/101/11 154/100/11 146/193/11
f 162/194/29 161/261/29 133/195/29
f 82/175/5 133/195/5 134/196/5
f 100/197/26 151/262/26 155/198/26
f 127/125/5 126/234/5 75/93/5
f 72/84/17 107/206/17 158/199/17
f 97/41/27 148/102/27 156/201/27
f 110/91/2 112/254/2 61/202/2
f 84/52/2 135/116/2 132/203/2
f 143/136/3 142/181/3 91/86/3
f 86/172/3 85/171/3 136/188/3
f 156/201/30 151/262/30 100/197/30
f 73/184/13 124/183/13 129/205/13
f 150/97/2 158/199/2 107/206/2
f 87/207/16 138/263/16 117/208/16
f 113/209/31 131/258/31 80/210/31
f 88/211/3 139/264/3 141/212/3
f 57/150/18 56/154/18 76/213/18
f 107/179/18 105/255/18 100/149/18
f 59/215/18 61/143/18 92/216/18
f 74/217/18 101/152/18 102/218/18
f 162/219/29 68/222/29 119/220/29
f 160/25/29 19/74/29 68/222/29
f 17/157/1 34/161/1 160/174/1
f 160/174/1 38/162/1 17/157/1
f 38/162/1 39/164/1 51/156/1
