# Blender v2.79 (sub 0) OBJ File: ''
# www.blender.org
mtllib untitled.mtl
o Futryna_Cube.001
v -0.394111 -0.102920 1.073820
v -0.394111 4.013860 1.073820
v -0.394111 -0.102920 -1.073820
v -0.394111 4.013860 -1.073820
v 0.394111 -0.102920 1.073820
v 0.394111 4.013860 1.073820
v 0.394111 -0.102920 -1.073820
v 0.394111 4.013860 -1.073820
v -0.347956 0.000000 -0.953998
v -0.347956 0.000000 0.953998
v -0.347956 3.910940 0.953998
v -0.347956 3.910940 -0.953998
v 0.347957 3.910940 -0.953998
v 0.347957 0.000000 -0.953998
v 0.347957 0.000000 0.953998
v 0.347957 3.910940 0.953998
vt 0.089001 0.501149
vt 0.122414 0.858043
vt 0.089001 0.858043
vt 0.529736 0.501149
vt 0.878187 0.858043
vt 0.529736 0.858043
vt 0.089001 0.346254
vt 0.122414 0.501149
vt 0.878187 0.346254
vt 0.529736 0.009338
vt 0.878187 0.009338
vt 0.529736 0.990603
vt 0.878187 0.501149
vt 0.496322 0.501149
vt 0.496322 0.858043
vt 0.496322 0.983116
vt 0.496322 0.346254
vt 0.529736 0.346254
vt 0.089001 0.009338
vt 0.122414 0.346254
vt 0.122414 0.983116
vt 0.089001 0.990603
vt 0.496322 0.013742
vt 0.122414 0.013742
vt 0.878187 0.990603
vn 0.9332 0.0000 0.3594
vn 0.0000 0.0000 -1.0000
vn 0.9124 -0.4092 0.0000
vn 0.0000 0.0000 1.0000
vn 0.0000 -1.0000 0.0000
vn 0.0000 1.0000 0.0000
vn -0.9124 -0.4092 0.0000
vn -0.9124 0.4092 0.0000
vn 0.9332 0.0000 -0.3594
vn 0.9124 0.4092 0.0000
vn -0.9332 0.0000 0.3594
vn -0.9332 0.0000 -0.3594
usemtl None
s off
f 8/1/1 14/2/1 7/3/1
f 4/4/2 7/5/2 3/6/2
f 6/7/3 13/8/3 8/1/3
f 6/9/4 1/10/4 5/11/4
f 7/5/5 1/12/5 3/6/5
f 4/4/6 6/9/6 8/13/6
f 14/2/4 12/14/4 9/15/4
f 10/16/6 14/2/6 9/15/6
f 4/4/7 11/17/7 2/18/7
f 1/12/8 9/15/8 3/6/8
f 5/19/9 16/20/9 6/7/9
f 7/3/10 15/21/10 5/22/10
f 3/6/11 12/14/11 4/4/11
f 2/18/12 10/23/12 1/10/12
f 12/14/5 16/20/5 11/17/5
f 11/17/2 15/24/2 10/23/2
f 8/1/1 13/8/1 14/2/1
f 4/4/2 8/13/2 7/5/2
f 6/7/3 16/20/3 13/8/3
f 6/9/4 2/18/4 1/10/4
f 7/5/5 5/25/5 1/12/5
f 4/4/6 2/18/6 6/9/6
f 14/2/4 13/8/4 12/14/4
f 10/16/6 15/21/6 14/2/6
f 4/4/7 12/14/7 11/17/7
f 1/12/8 10/16/8 9/15/8
f 5/19/9 15/24/9 16/20/9
f 7/3/10 14/2/10 15/21/10
f 3/6/11 9/15/11 12/14/11
f 2/18/12 11/17/12 10/23/12
f 12/14/5 13/8/5 16/20/5
f 11/17/2 16/20/2 15/24/2
