# Blender v2.79 (sub 0) OBJ File: 'Player.blend'
# www.blender.org
mtllib Irobot.mtl
o Cylinder
v -0.000000 0.102787 -0.504399
v -0.000000 -0.000000 -0.504399
v 0.097545 0.102787 -0.490393
v 0.097545 -0.000000 -0.490393
v 0.191342 0.102787 -0.461940
v 0.191342 -0.000000 -0.461940
v 0.277785 0.102787 -0.415735
v 0.277785 -0.000000 -0.415735
v 0.353553 0.102787 -0.353553
v 0.353553 -0.000000 -0.353553
v 0.415735 0.102787 -0.277785
v 0.415735 -0.000000 -0.277785
v 0.461940 0.102787 -0.191342
v 0.461940 -0.000000 -0.191342
v 0.490393 0.102787 -0.097545
v 0.490393 -0.000000 -0.097545
v 0.500000 0.102787 -0.000000
v 0.500000 -0.000000 -0.000000
v 0.490393 0.102787 0.097545
v 0.490393 -0.000000 0.097545
v 0.461940 0.102787 0.191342
v 0.461940 -0.000000 0.191342
v 0.415735 0.102787 0.277785
v 0.415735 -0.000000 0.277785
v 0.353553 0.102787 0.353553
v 0.353553 -0.000000 0.353553
v 0.277785 0.102787 0.415735
v 0.277785 -0.000000 0.415735
v 0.191342 0.102787 0.461940
v 0.191342 -0.000000 0.461940
v 0.097545 0.102788 0.490393
v 0.097545 0.000000 0.490393
v -0.000000 0.102788 0.500000
v -0.000000 0.000000 0.500000
v -0.097545 0.102788 0.490393
v -0.097545 0.000000 0.490393
v -0.191342 0.102788 0.461940
v -0.191342 0.000000 0.461940
v -0.277785 0.102788 0.415735
v -0.277785 0.000000 0.415735
v -0.353554 0.102788 0.353553
v -0.353554 0.000000 0.353553
v -0.415735 0.102788 0.277785
v -0.415735 0.000000 0.277785
v -0.461940 0.102788 0.191341
v -0.461940 0.000000 0.191341
v -0.490393 0.102788 0.097545
v -0.490393 0.000000 0.097545
v -0.500000 0.102788 -0.000000
v -0.500000 0.000000 -0.000000
v -0.490393 0.102788 -0.097546
v -0.490393 0.000000 -0.097546
v -0.461940 0.102788 -0.191342
v -0.461940 0.000000 -0.191342
v -0.415734 0.102788 -0.277786
v -0.415734 0.000000 -0.277786
v -0.353553 0.102788 -0.353554
v -0.353553 0.000000 -0.353554
v -0.277785 0.102788 -0.415735
v -0.277785 0.000000 -0.415735
v -0.191341 0.102788 -0.461940
v -0.191341 0.000000 -0.461940
v -0.097544 0.102788 -0.490393
v -0.097544 -0.000000 -0.490393
vt 0.121284 0.045841
vt 0.121284 -0.002199
vt 0.089885 -0.002199
vt 0.089885 0.045841
vt 0.058653 -0.002199
vt 0.058653 0.045841
vt 0.027422 -0.002199
vt 0.027422 0.045841
vt -0.003810 -0.002199
vt 0.995922 0.045842
vt 0.995935 -0.002197
vt 0.964704 -0.002197
vt 0.964691 0.045842
vt 0.933472 -0.002197
vt 0.933460 0.045842
vt 0.902241 -0.002197
vt 0.902229 0.045842
vt 0.871009 -0.002198
vt 0.870998 0.045842
vt 0.839778 -0.002198
vt 0.839767 0.045842
vt 0.808546 -0.002198
vt 0.808536 0.045842
vt 0.777315 -0.002198
vt 0.777305 0.045842
vt 0.746083 -0.002198
vt 0.746074 0.045842
vt 0.714852 -0.002198
vt 0.714843 0.045842
vt 0.683620 -0.002198
vt 0.683612 0.045842
vt 0.652389 -0.002198
vt 0.652381 0.045842
vt 0.621157 -0.002198
vt 0.621150 0.045841
vt 0.589926 -0.002198
vt 0.589919 0.045841
vt 0.558694 -0.002198
vt 0.558688 0.045841
vt 0.527462 -0.002198
vt 0.527456 0.045841
vt 0.496231 -0.002198
vt 0.496225 0.045841
vt 0.464999 -0.002199
vt 0.464994 0.045841
vt 0.433768 -0.002199
vt 0.433763 0.045841
vt 0.402536 -0.002199
vt 0.402532 0.045841
vt 0.371305 -0.002199
vt 0.371301 0.045841
vt 0.340073 -0.002199
vt 0.340070 0.045841
vt 0.308842 -0.002199
vt 0.308839 0.045841
vt 0.277610 -0.002199
vt 0.277608 0.045841
vt 0.246378 -0.002199
vt 0.246377 0.045841
vt 0.215147 -0.002199
vt 0.215146 0.045841
vt 0.183915 -0.002199
vt 0.698735 0.940456
vt 0.825657 0.103643
vt 0.552992 0.395126
vt 0.183914 0.045841
vt 0.152683 -0.002199
vt 0.152683 0.045841
vt 0.193899 0.942034
vt 0.320822 0.105223
vt 0.048157 0.396706
vt -0.003809 0.045841
vt 0.971398 0.648971
vt 0.900885 0.860033
vt 0.954998 0.728159
vt 0.932675 0.801866
vt 0.865252 0.907654
vt 0.783625 0.957177
vt 0.825658 0.940455
vt 0.740768 0.957178
vt 0.623507 0.860036
vt 0.659141 0.907656
vt 0.593203 0.799428
vt 0.569393 0.728160
vt 0.552992 0.648972
vt 0.544631 0.564906
vt 0.544631 0.479192
vt 0.593202 0.244670
vt 0.569393 0.315938
vt 0.623507 0.184062
vt 0.659141 0.136442
vt 0.740768 0.086920
vt 0.698735 0.103641
vt 0.783624 0.086921
vt 0.900884 0.184063
vt 0.865250 0.136444
vt 0.931188 0.244672
vt 0.954997 0.315939
vt 0.979759 0.479193
vt 0.971398 0.395127
vt 0.979758 0.564906
vt 0.466563 0.650551
vt 0.426354 0.801005
vt 0.451860 0.731551
vt 0.360417 0.909233
vt 0.396050 0.861613
vt 0.278789 0.958756
vt 0.320822 0.942034
vt 0.235933 0.958756
vt 0.118671 0.861614
vt 0.154305 0.909233
vt 0.088367 0.801006
vt 0.064557 0.729738
vt 0.048157 0.650549
vt 0.039796 0.566484
vt 0.039796 0.480771
vt 0.088367 0.246250
vt 0.064558 0.317518
vt 0.154305 0.138023
vt 0.118671 0.185643
vt 0.235932 0.088501
vt 0.193899 0.105223
vt 0.278789 0.088501
vt 0.396049 0.185644
vt 0.360416 0.138024
vt 0.450163 0.317520
vt 0.426353 0.246252
vt 0.466563 0.396708
vt 0.474924 0.480773
vt 0.474924 0.566485
vn 0.1421 -0.0000 -0.9898
vn 0.2903 -0.0000 -0.9569
vn 0.4714 -0.0000 -0.8819
vn 0.6344 0.0000 -0.7730
vn 0.7730 0.0000 -0.6344
vn 0.8819 0.0000 -0.4714
vn 0.9569 0.0000 -0.2903
vn 0.9952 0.0000 -0.0980
vn 0.9952 -0.0000 0.0980
vn 0.9569 0.0000 0.2903
vn 0.8819 0.0000 0.4714
vn 0.7730 0.0000 0.6344
vn 0.6344 0.0000 0.7730
vn 0.4714 -0.0000 0.8819
vn 0.2903 -0.0000 0.9569
vn 0.0980 -0.0000 0.9952
vn -0.0980 0.0000 0.9952
vn -0.2903 0.0000 0.9569
vn -0.4714 0.0000 0.8819
vn -0.6344 0.0000 0.7730
vn -0.7730 0.0000 0.6344
vn -0.8819 0.0000 0.4714
vn -0.9569 0.0000 0.2903
vn -0.9952 0.0000 0.0980
vn -0.9952 0.0000 -0.0980
vn -0.9569 0.0000 -0.2903
vn -0.8819 0.0000 -0.4714
vn -0.7730 0.0000 -0.6344
vn -0.6344 0.0000 -0.7730
vn -0.4714 0.0000 -0.8819
vn -0.0000 -1.0000 0.0000
vn -0.2903 0.0000 -0.9569
vn -0.1421 0.0000 -0.9898
vn 0.0000 1.0000 -0.0000
usemtl None
s off
f 2/1/1 1/2/1 3/3/1
f 4/4/2 3/3/2 5/5/2
f 6/6/3 5/5/3 7/7/3
f 8/8/4 7/7/4 9/9/4
f 10/10/5 9/11/5 11/12/5
f 12/13/6 11/12/6 13/14/6
f 14/15/7 13/14/7 15/16/7
f 16/17/8 15/16/8 17/18/8
f 18/19/9 17/18/9 19/20/9
f 20/21/10 19/20/10 21/22/10
f 22/23/11 21/22/11 23/24/11
f 24/25/12 23/24/12 25/26/12
f 26/27/13 25/26/13 27/28/13
f 28/29/14 27/28/14 29/30/14
f 30/31/15 29/30/15 31/32/15
f 32/33/16 31/32/16 33/34/16
f 34/35/17 33/34/17 35/36/17
f 36/37/18 35/36/18 37/38/18
f 38/39/19 37/38/19 39/40/19
f 40/41/20 39/40/20 41/42/20
f 42/43/21 41/42/21 43/44/21
f 44/45/22 43/44/22 45/46/22
f 46/47/23 45/46/23 47/48/23
f 48/49/24 47/48/24 49/50/24
f 50/51/25 49/50/25 51/52/25
f 52/53/26 51/52/26 53/54/26
f 54/55/27 53/54/27 55/56/27
f 56/57/28 55/56/28 57/58/28
f 58/59/29 57/58/29 59/60/29
f 60/61/30 59/60/30 61/62/30
f 54/63/31 22/64/31 38/65/31
f 62/66/32 61/62/32 63/67/32
f 64/68/33 63/67/33 1/2/33
f 15/69/34 47/70/34 31/71/34
f 2/1/1 3/3/1 4/4/1
f 4/4/2 5/5/2 6/6/2
f 6/6/3 7/7/3 8/8/3
f 8/8/4 9/9/4 10/72/4
f 10/10/5 11/12/5 12/13/5
f 12/13/6 13/14/6 14/15/6
f 14/15/7 15/16/7 16/17/7
f 16/17/8 17/18/8 18/19/8
f 18/19/9 19/20/9 20/21/9
f 20/21/10 21/22/10 22/23/10
f 22/23/11 23/24/11 24/25/11
f 24/25/12 25/26/12 26/27/12
f 26/27/13 27/28/13 28/29/13
f 28/29/14 29/30/14 30/31/14
f 30/31/15 31/32/15 32/33/15
f 32/33/16 33/34/16 34/35/16
f 34/35/17 35/36/17 36/37/17
f 36/37/18 37/38/18 38/39/18
f 38/39/19 39/40/19 40/41/19
f 40/41/20 41/42/20 42/43/20
f 42/43/21 43/44/21 44/45/21
f 44/45/22 45/46/22 46/47/22
f 46/47/23 47/48/23 48/49/23
f 48/49/24 49/50/24 50/51/24
f 50/51/25 51/52/25 52/53/25
f 52/53/26 53/54/26 54/55/26
f 54/55/27 55/56/27 56/57/27
f 56/57/28 57/58/28 58/59/28
f 58/59/29 59/60/29 60/61/29
f 60/61/30 61/62/30 62/66/30
f 6/73/31 64/74/31 4/75/31
f 4/75/31 64/74/31 2/76/31
f 64/74/31 6/73/31 62/77/31
f 62/77/31 58/78/31 60/79/31
f 58/78/31 54/63/31 56/80/31
f 54/63/31 50/81/31 52/82/31
f 50/81/31 54/63/31 48/83/31
f 48/83/31 54/63/31 46/84/31
f 46/84/31 38/65/31 44/85/31
f 44/85/31 38/65/31 42/86/31
f 42/86/31 38/65/31 40/87/31
f 38/65/31 34/88/31 36/89/31
f 34/88/31 38/65/31 32/90/31
f 32/90/31 38/65/31 30/91/31
f 30/91/31 26/92/31 28/93/31
f 26/92/31 22/64/31 24/94/31
f 22/64/31 18/95/31 20/96/31
f 18/95/31 22/64/31 16/97/31
f 16/97/31 22/64/31 14/98/31
f 14/98/31 10/99/31 12/100/31
f 10/99/31 6/73/31 8/101/31
f 62/77/31 6/73/31 58/78/31
f 58/78/31 6/73/31 54/63/31
f 30/91/31 38/65/31 26/92/31
f 26/92/31 38/65/31 22/64/31
f 14/98/31 22/64/31 10/99/31
f 10/99/31 22/64/31 6/73/31
f 54/63/31 38/65/31 46/84/31
f 6/73/31 22/64/31 54/63/31
f 62/66/32 63/67/32 64/68/32
f 64/68/33 1/2/33 2/1/33
f 63/102/34 3/103/34 1/104/34
f 3/103/34 7/105/34 5/106/34
f 7/105/34 11/107/34 9/108/34
f 11/107/34 7/105/34 13/109/34
f 13/109/34 7/105/34 15/69/34
f 15/69/34 19/110/34 17/111/34
f 19/110/34 15/69/34 21/112/34
f 21/112/34 15/69/34 23/113/34
f 23/113/34 31/71/34 25/114/34
f 25/114/34 31/71/34 27/115/34
f 27/115/34 31/71/34 29/116/34
f 31/71/34 35/117/34 33/118/34
f 35/117/34 39/119/34 37/120/34
f 39/119/34 43/121/34 41/122/34
f 43/121/34 47/70/34 45/123/34
f 47/70/34 51/124/34 49/125/34
f 51/124/34 55/126/34 53/127/34
f 55/126/34 63/102/34 57/128/34
f 57/128/34 63/102/34 59/129/34
f 59/129/34 63/102/34 61/130/34
f 63/102/34 7/105/34 3/103/34
f 31/71/34 47/70/34 35/117/34
f 35/117/34 47/70/34 39/119/34
f 39/119/34 47/70/34 43/121/34
f 47/70/34 63/102/34 51/124/34
f 51/124/34 63/102/34 55/126/34
f 63/102/34 15/69/34 7/105/34
f 15/69/34 31/71/34 23/113/34
f 63/102/34 47/70/34 15/69/34
